<?xml version="1.0" encoding="utf-8"?>
<!-- Generator: Adobe Illustrator 16.0.3, SVG Export Plug-In . SVG Version: 6.00 Build 0)  -->
<!DOCTYPE svg PUBLIC "-//W3C//DTD SVG 1.1//EN" "http://www.w3.org/Graphics/SVG/1.1/DTD/svg11.dtd">
<svg version="1.1" id="Layer_1" xmlns="http://www.w3.org/2000/svg" xmlns:xlink="http://www.w3.org/1999/xlink" x="0px" y="0px"
	 width="40px" height="40px" viewBox="0 0 40 40" enable-background="new 0 0 40 40" xml:space="preserve">
<path d="M38,10.728c0,1.104-0.896,2-2,2H4c-1.104,0-2-0.896-2-2V9c0-1.104,0.896-2,2-2h32c1.104,0,2,0.896,2,2V10.728z"/>
<path d="M38,21.525c0,1.104-0.896,2-2,2H4c-1.104,0-2-0.896-2-2v-1.729c0-1.104,0.896-2,2-2h32c1.104,0,2,0.896,2,2V21.525z"/>
<path d="M38,32.322c0,1.104-0.896,2-2,2H4c-1.104,0-2-0.896-2-2v-1.729c0-1.104,0.896-2,2-2h32c1.104,0,2,0.896,2,2V32.322z"/>
</svg>
