<svg width="17" height="16" viewBox="0 0 17 16" fill="none" xmlns="http://www.w3.org/2000/svg">
<path d="M14.4101 2.97996C13.4827 2.04948 12.3172 1.392 11.0411 1.07947C9.76507 0.766931 8.42765 0.811379 7.17518 1.20795C5.9227 1.60452 4.80343 2.33793 3.93981 3.32794C3.07619 4.31795 2.5015 5.52642 2.27862 6.82114L1.83842 6.38025C1.73357 6.28063 1.59395 6.22592 1.44934 6.22777C1.30472 6.22962 1.16655 6.28789 1.06429 6.39016C0.962023 6.49242 0.903752 6.63059 0.901901 6.77521C0.900049 6.91982 0.954764 7.05944 1.05438 7.16429L2.33061 8.44052C2.38213 8.49219 2.44334 8.53318 2.51073 8.56115C2.57811 8.58912 2.65036 8.60352 2.72332 8.60352C2.79629 8.60352 2.86853 8.58912 2.93592 8.56115C3.00331 8.53318 3.06452 8.49219 3.11604 8.44052L4.39227 7.16429C4.49188 7.05944 4.5466 6.91982 4.54475 6.77521C4.54289 6.63059 4.48462 6.49242 4.38236 6.39016C4.28009 6.28789 4.14192 6.22962 3.99731 6.22777C3.8527 6.22592 3.71308 6.28063 3.60823 6.38025L3.48206 6.50641C3.82316 5.21676 4.58057 4.07584 5.63666 3.26084C6.69276 2.44585 7.98842 2.00241 9.32242 1.99939C10.6564 1.99638 11.9541 2.43395 13.0138 3.24416C14.0736 4.05436 14.8362 5.19185 15.1831 6.47994C15.53 7.76804 15.4419 9.13465 14.9324 10.3675C14.4229 11.6004 13.5205 12.6305 12.3654 13.2978C11.2104 13.9652 9.86727 14.2325 8.54471 14.0581C7.22216 13.8838 5.99419 13.2776 5.05153 12.3337C4.94659 12.2342 4.80693 12.1796 4.66231 12.1815C4.5177 12.1835 4.37958 12.2419 4.2774 12.3443C4.17523 12.4466 4.11708 12.5849 4.11536 12.7295C4.11363 12.8741 4.16847 13.0137 4.26818 13.1184C5.61262 14.4633 7.43626 15.2191 9.33792 15.2194C11.2396 15.2197 13.0635 14.4646 14.4084 13.1202C15.7533 11.7757 16.509 9.95207 16.5093 8.05042C16.5097 6.14876 15.7545 4.32487 14.4101 2.97996Z" fill="#E65E1D" stroke="#E65E1D" stroke-width="0.4"/>
<path d="M9.33779 3.24756C9.1907 3.24756 9.04964 3.30599 8.94564 3.40999C8.84163 3.514 8.7832 3.65506 8.7832 3.80214V8.04885C8.78384 8.19617 8.84235 8.33734 8.94611 8.44192L10.9565 10.4523C11.0613 10.5519 11.2009 10.6066 11.3456 10.6048C11.4902 10.6029 11.6283 10.5446 11.7306 10.4424C11.8329 10.3401 11.8911 10.2019 11.893 10.0573C11.8948 9.9127 11.8401 9.77308 11.7405 9.66823L9.89306 7.82009V3.80214C9.89306 3.65506 9.83463 3.514 9.73063 3.40999C9.62662 3.30599 9.48556 3.24756 9.33848 3.24756H9.33779Z" fill="#E65E1D" stroke="#E65E1D" stroke-width="0.4"/>
</svg>
