<svg width="27" height="16" viewBox="0 0 27 16" fill="none" xmlns="http://www.w3.org/2000/svg">
<path d="M25.8629 8.03867L22.9908 1.47999C22.8513 1.16277 22.5917 0.913785 22.269 0.787559C21.9462 0.661333 21.5866 0.668157 21.2689 0.806536L18.3299 2.09698C18.1721 2.166 18.0295 2.26572 17.9106 2.39034C17.7916 2.51496 17.6987 2.66198 17.6371 2.82286C17.6115 2.88715 17.5916 2.95354 17.5774 3.02126C14.19 1.99616 13.6077 2.05343 12.2253 2.19296C11.4929 2.26716 10.4912 2.36717 8.56445 2.29942C8.55056 2.11809 8.49949 1.94156 8.41443 1.78082L8.39104 1.73888C8.30588 1.58971 8.19194 1.45893 8.05585 1.35412C7.91975 1.24932 7.7642 1.17257 7.59822 1.12834L4.49954 0.291164C4.18077 0.20565 3.8414 0.244575 3.55026 0.400046L3.50751 0.423435C3.35868 0.508534 3.22818 0.622263 3.12352 0.758061C3.01887 0.893859 2.94215 1.04904 2.89778 1.21464L1.04438 8.13223C0.958897 8.45128 0.997816 8.79088 1.15326 9.08232L1.17665 9.12506C1.26175 9.2739 1.37548 9.4044 1.51127 9.50906C1.64707 9.61371 1.80225 9.69043 1.96785 9.7348L5.06653 10.5647C5.38565 10.6493 5.72492 10.6104 6.01662 10.4558L6.05856 10.4324C6.21917 10.3406 6.35831 10.2155 6.46667 10.0655C7.88454 11.2551 11.0695 13.9191 11.6962 14.3788C12.0801 14.6603 12.5785 14.7587 13.2286 14.6812C13.6028 14.6304 13.972 14.5473 14.3319 14.4328L14.4852 14.5836C14.4936 14.5922 14.5025 14.6003 14.5118 14.6078L14.6594 14.7514L14.6908 14.7191C15.0178 14.8906 15.3792 14.9865 15.7482 14.9998C15.969 15.0033 16.1873 14.9515 16.3829 14.849C16.6717 14.6925 16.8846 14.4215 17.0169 14.0425C17.1013 14.0539 17.1865 14.0598 17.2717 14.0602C17.5368 14.0628 17.7985 14.0005 18.0339 13.8787C18.3086 13.734 18.5207 13.4935 18.6299 13.2029C18.673 13.0894 18.702 12.971 18.7162 12.8504C18.8692 12.8681 19.0237 12.8681 19.1767 12.8504C19.5208 12.8154 19.8439 12.6684 20.0962 12.4318C20.3225 12.215 20.4758 11.9331 20.5349 11.6253C20.5903 11.3438 20.5682 11.0525 20.4712 10.7825L20.6817 10.6365C20.8596 10.8693 21.1106 11.0357 21.3943 11.1088C21.678 11.1819 21.9781 11.1576 22.2464 11.0398L25.1886 9.76383C25.5062 9.62445 25.7555 9.36481 25.8819 9.04186C26.0083 8.7189 26.0014 8.35901 25.8629 8.04109V8.03867ZM18.7493 3.33823C18.7375 3.30982 18.7375 3.27792 18.7493 3.24951C18.7544 3.23561 18.7622 3.22289 18.7723 3.21208C18.7824 3.20127 18.7946 3.19261 18.8082 3.1866L21.7471 1.89615C21.7611 1.89036 21.776 1.88738 21.7911 1.88738C21.8062 1.88738 21.8211 1.89036 21.8351 1.89615C21.8491 1.90126 21.8619 1.9092 21.8727 1.91946C21.8835 1.92973 21.8921 1.94211 21.898 1.95584L24.77 8.51372C24.776 8.52774 24.7791 8.54283 24.7791 8.55808C24.7791 8.57332 24.776 8.58841 24.77 8.60244C24.7649 8.61633 24.7571 8.62906 24.747 8.63986C24.7368 8.65067 24.7247 8.65934 24.7111 8.66534L21.773 9.95579C21.759 9.96158 21.7441 9.96456 21.729 9.96456C21.7139 9.96456 21.699 9.96158 21.685 9.95579C21.657 9.94472 21.6342 9.92338 21.6213 9.89611L19.0162 3.94635L18.8985 3.66971C18.8862 3.63739 18.8714 3.6061 18.8541 3.57615L18.7493 3.33823ZM14.7973 8.80003C14.7418 8.85553 14.6978 8.92142 14.6677 8.99393C14.6377 9.06644 14.6222 9.14417 14.6222 9.22266C14.6222 9.30114 14.6377 9.37887 14.6677 9.45138C14.6978 9.52389 14.7418 9.58978 14.7973 9.64528L17.4975 12.3447C17.5645 12.5956 17.5419 12.719 17.5217 12.7706C17.5128 12.7948 17.4949 12.8147 17.4717 12.8262C17.4097 12.855 17.3417 12.8686 17.2733 12.8657C17.1341 12.8721 16.9968 12.8312 16.8838 12.7496L14.2731 10.3397C14.1553 10.241 14.0041 10.1915 13.8508 10.2015C13.6975 10.2116 13.554 10.2803 13.4501 10.3934C13.3462 10.5066 13.2899 10.6554 13.293 10.809C13.296 10.9626 13.3582 11.1091 13.4665 11.218L15.9208 13.49C15.8989 13.5855 15.8411 13.6689 15.7595 13.7231C15.5982 13.8118 15.349 13.711 15.2578 13.6699L14.9505 13.3714C14.9264 13.3431 14.8994 13.3175 14.8699 13.2948L13.5012 11.9592C13.3871 11.8539 13.2365 11.7973 13.0813 11.8012C12.9262 11.8051 12.7786 11.8694 12.67 11.9803C12.5614 12.0912 12.5003 12.24 12.4996 12.3953C12.499 12.5505 12.5588 12.6999 12.6664 12.8117L13.331 13.4569C13.2447 13.4739 13.1697 13.486 13.0891 13.4948C12.7616 13.5335 12.5245 13.5069 12.4003 13.4142C11.743 12.9303 7.80308 9.6235 6.91026 8.87827L8.29103 3.59148L8.56606 3.48582C9.08949 3.50357 9.5847 3.51002 10.0412 3.50599C9.59519 4.37058 9.15402 5.54085 9.39598 6.44094C9.49685 6.82301 9.74013 7.15199 10.0759 7.36038L10.0694 7.37571L10.2888 7.47814C10.3056 7.48615 10.3228 7.49315 10.3404 7.4991C11.2703 7.88382 11.9825 7.35958 12.6721 6.85388C13.6173 6.15785 14.5102 5.50053 16.3136 7.70719L16.4144 7.82817C16.4331 7.85322 16.4545 7.8762 16.4781 7.89672C17.7339 9.18233 19.1671 10.7551 19.3453 11.1704C19.3752 11.2426 19.3828 11.3221 19.3671 11.3987C19.3554 11.4635 19.3241 11.5231 19.2776 11.5697C19.2128 11.6263 19.1312 11.6601 19.0453 11.6656C18.8127 11.6774 18.5808 11.6305 18.371 11.5293L15.6417 8.80003C15.5864 8.74425 15.5206 8.70004 15.448 8.67C15.3755 8.63995 15.2976 8.62465 15.2191 8.62502C15.1407 8.62472 15.063 8.64004 14.9906 8.67009C14.9182 8.70014 14.8525 8.74431 14.7973 8.80003ZM11.9688 5.8925C11.5107 6.22963 11.1147 6.52159 10.8066 6.40223L10.7671 6.38368C10.7069 6.35141 10.6542 6.30678 10.6125 6.2527C10.5708 6.19863 10.541 6.13634 10.5251 6.06994C10.3477 5.41504 11.009 4.13427 11.4421 3.45517C11.7954 3.43098 12.0874 3.40114 12.3463 3.37452C13.6464 3.24386 14.1359 3.19547 17.8976 4.36171L20.1147 9.58398C20.093 9.5985 20.0712 9.61301 20.0502 9.62834C19.9776 9.67754 19.8986 9.73238 19.8139 9.78964C18.9743 8.75245 17.608 7.34425 17.3306 7.06197C14.7578 3.83666 13.2109 4.97548 11.9688 5.8925ZM7.35869 2.32926V2.33571C7.37107 2.36075 7.37366 2.38952 7.36594 2.41637L7.27319 2.76237L7.22238 2.95835C7.21777 2.97099 7.214 2.98393 7.21109 2.99707L7.17238 3.15031L5.51658 9.33073C5.51267 9.34532 5.50587 9.35897 5.49659 9.37089C5.4873 9.3828 5.47573 9.39273 5.46254 9.40009L5.45609 9.40412C5.43105 9.41651 5.40228 9.4191 5.37543 9.41138L2.27837 8.58146C2.24896 8.57297 2.22406 8.55328 2.209 8.52662L2.20497 8.52098C2.19274 8.49589 2.19015 8.46719 2.19771 8.44032L4.05273 1.52435C4.06086 1.49587 4.07963 1.47161 4.10515 1.4566L4.1116 1.45256C4.127 1.44531 4.14378 1.44146 4.1608 1.44127C4.17098 1.44009 4.18127 1.44009 4.19145 1.44127L7.29094 2.27522C7.30523 2.27933 7.31858 2.28621 7.3302 2.29548C7.34183 2.30476 7.35151 2.31624 7.35869 2.32926Z" fill="#E65E1D" stroke="#E65E1D" stroke-width="0.4"/>
</svg>
