<svg width="26" height="26" viewBox="0 0 26 26" fill="none" xmlns="http://www.w3.org/2000/svg">
<path d="M23.7265 19.8631L22.8855 16.7242L22.8854 16.7238L22.8853 16.7234L19.5207 4.16669C19.4087 3.7507 19.1363 3.39611 18.7632 3.18072C18.3901 2.96532 17.9468 2.9067 17.5305 3.01772L14.3912 3.85886C14.3567 3.8681 14.3239 3.88019 14.2905 3.89136C14.1393 3.69222 13.9442 3.53071 13.7204 3.41945C13.4965 3.30819 13.25 3.25019 13 3.24999H9.75C9.46448 3.25007 9.18409 3.32595 8.9375 3.46987C8.6909 3.32595 8.41052 3.25007 8.125 3.24999H4.875C4.44417 3.25048 4.03113 3.42184 3.72649 3.72648C3.42184 4.03112 3.25048 4.44416 3.25 4.87499V21.125C3.25048 21.5558 3.42184 21.9689 3.72649 22.2735C4.03113 22.5781 4.44417 22.7495 4.875 22.75H8.125C8.41052 22.7499 8.6909 22.674 8.9375 22.5301C9.18409 22.674 9.46448 22.7499 9.75 22.75H13C13.4308 22.7495 13.8439 22.5781 14.1485 22.2735C14.4532 21.9689 14.6245 21.5558 14.625 21.125V11.0097L16.6068 18.4059V18.4061L16.6069 18.4063L17.448 21.5454C17.5032 21.7515 17.5984 21.9448 17.7283 22.1142C17.8582 22.2836 18.0201 22.4257 18.205 22.5324C18.3898 22.6391 18.5939 22.7083 18.8055 22.7361C19.0171 22.764 19.2321 22.7498 19.4382 22.6944L22.5775 21.8533C22.9938 21.7417 23.3487 21.4694 23.5642 21.0961C23.7797 20.7229 23.8381 20.2794 23.7265 19.8631ZM15.8632 9.35258L19.0027 8.51133L21.1061 16.3593L17.9662 17.2007L15.8632 9.35258ZM17.9511 4.58726L18.5821 6.94169L15.4428 7.78293L14.8119 5.42851L17.9511 4.58726ZM13 4.87499L13.0008 17.0625H9.75V4.87499H13ZM8.125 4.87499V7.31249H4.875V4.87499H8.125ZM4.875 21.125V8.93749H8.125V21.125H4.875ZM13 21.125H9.75V18.6875H13.0009L13.001 21.125H13ZM22.1569 20.2836L19.0177 21.1248L18.3868 18.7704L21.5269 17.9289L22.1579 20.2833L22.1569 20.2836Z" fill="#E65E1D"/>
</svg>
