<svg width="18" height="16" viewBox="0 0 18 16" fill="none" xmlns="http://www.w3.org/2000/svg">
<path d="M8.88308 16H15.1053C15.8125 16 16.4908 15.719 16.9909 15.219C17.491 14.7189 17.772 14.0406 17.772 13.3333V2.66667C17.772 1.95942 17.491 1.28115 16.9909 0.781049C16.4908 0.280952 15.8125 0 15.1053 0H8.88308C8.17584 0 7.49756 0.280952 6.99747 0.781049C6.49737 1.28115 6.21642 1.95942 6.21642 2.66667V4.44444C6.21642 4.68019 6.31007 4.90628 6.47677 5.07298C6.64347 5.23968 6.86956 5.33333 7.10531 5.33333C7.34105 5.33333 7.56715 5.23968 7.73384 5.07298C7.90054 4.90628 7.99419 4.68019 7.99419 4.44444V2.66667C7.99419 2.43092 8.08785 2.20483 8.25454 2.03813C8.42124 1.87143 8.64734 1.77778 8.88308 1.77778H15.1053C15.3411 1.77778 15.5671 1.87143 15.7338 2.03813C15.9005 2.20483 15.9942 2.43092 15.9942 2.66667V13.3333C15.9942 13.5691 15.9005 13.7952 15.7338 13.9619C15.5671 14.1286 15.3411 14.2222 15.1053 14.2222H8.88308C8.64734 14.2222 8.42124 14.1286 8.25454 13.9619C8.08785 13.7952 7.99419 13.5691 7.99419 13.3333V11.5556C7.99419 11.3198 7.90054 11.0937 7.73384 10.927C7.56715 10.7603 7.34105 10.6667 7.10531 10.6667C6.86956 10.6667 6.64347 10.7603 6.47677 10.927C6.31007 11.0937 6.21642 11.3198 6.21642 11.5556V13.3333C6.21642 14.0406 6.49737 14.7189 6.99747 15.219C7.49756 15.719 8.17584 16 8.88308 16Z" fill="#E65E1D"/>
<path d="M3.54964 11.5556C3.66663 11.5562 3.78259 11.5338 3.89089 11.4896C3.99919 11.4453 4.09769 11.3802 4.18075 11.2978C4.26407 11.2151 4.3302 11.1168 4.37532 11.0085C4.42045 10.9002 4.44368 10.784 4.44368 10.6667C4.44368 10.5493 4.42045 10.4331 4.37532 10.3248C4.3302 10.2165 4.26407 10.1182 4.18075 10.0356L3.0252 8.88889H13.3274C13.5632 8.88889 13.7893 8.79524 13.956 8.62854C14.1227 8.46184 14.2163 8.23575 14.2163 8C14.2163 7.76426 14.1227 7.53816 13.956 7.37146C13.7893 7.20477 13.5632 7.11111 13.3274 7.11111H3.0252L4.18075 5.96445C4.26363 5.88157 4.32938 5.78318 4.37423 5.67489C4.41908 5.56661 4.44217 5.45055 4.44217 5.33334C4.44217 5.09662 4.34813 4.86961 4.18075 4.70223C4.01337 4.53484 3.78635 4.44081 3.54964 4.44081C3.43243 4.44081 3.31637 4.4639 3.20809 4.50875C3.0998 4.5536 3.00141 4.61935 2.91853 4.70223L0.251864 7.36889C0.105145 7.52016 0.0169353 7.71863 0.00297546 7.92889C-0.0014534 7.98807 -0.0014534 8.04749 0.00297546 8.10667C0.0258226 8.28138 0.100077 8.44536 0.216309 8.57778L0.260753 8.62223L2.92742 11.2889C3.09153 11.4564 3.31518 11.5522 3.54964 11.5556Z" fill="#E65E1D"/>
</svg>
