<svg width="32" height="31" viewBox="0 0 32 31" fill="none" xmlns="http://www.w3.org/2000/svg">
<path d="M13.375 30.75C14.8247 30.75 16 29.5748 16 28.125C16 26.6753 14.8247 25.5 13.375 25.5C11.9253 25.5 10.75 26.6753 10.75 28.125C10.75 29.5748 11.9253 30.75 13.375 30.75Z" fill="#F5F4F4"/>
<path d="M26.125 30.75C27.5747 30.75 28.75 29.5748 28.75 28.125C28.75 26.6753 27.5747 25.5 26.125 25.5C24.6753 25.5 23.5 26.6753 23.5 28.125C23.5 29.5748 24.6753 30.75 26.125 30.75Z" fill="#F5F4F4"/>
<path d="M1.75 1.5L8.5 6L12.25 22.5H27.25L31 9.75H16.75" stroke="#F5F4F4" stroke-width="1.66667" stroke-linecap="round" stroke-linejoin="round"/>
<path d="M16.75 16.5H28.75" stroke="#F5F4F4" stroke-width="1.66667" stroke-linecap="round" stroke-linejoin="round"/>
</svg>
