<svg xmlns="http://www.w3.org/2000/svg" width="1406" height="1135" viewBox="0 0 1406 1135" version="1.1"><path d="M 1065.500 31.957 C 1060 32.943, 1052.707 34.489, 1049.294 35.391 C 1045.880 36.294, 1039.085 38.560, 1034.193 40.426 C 1029.300 42.293, 1022.418 45.269, 1018.899 47.038 C 1015.379 48.807, 1008.222 53.096, 1002.993 56.569 C 997.764 60.041, 990.114 65.781, 985.993 69.323 C 981.872 72.865, 975.547 79.079, 971.938 83.132 C 968.328 87.184, 963.577 92.975, 961.378 96 C 959.180 99.025, 955.638 104.396, 953.506 107.935 C 951.375 111.474, 947.924 117.898, 945.839 122.211 C 943.753 126.523, 940.489 134.653, 938.586 140.276 C 936.682 145.899, 934.410 154.025, 933.536 158.333 C 932.663 162.641, 931.456 170.966, 930.854 176.833 C 930.253 182.700, 930.036 192.675, 930.372 199 C 930.709 205.325, 931.679 214.443, 932.528 219.262 C 933.377 224.081, 935.209 231.956, 936.598 236.762 C 937.988 241.568, 941.120 250.225, 943.558 256 C 945.997 261.775, 950.242 270.237, 952.992 274.805 C 955.743 279.372, 960.645 286.572, 963.887 290.805 C 967.128 295.037, 974.217 302.809, 979.640 308.076 C 985.063 313.343, 993.848 320.662, 999.162 324.340 C 1004.476 328.017, 1012.576 333.014, 1017.162 335.444 C 1021.748 337.874, 1029.775 341.443, 1035 343.374 C 1040.225 345.306, 1048.100 347.778, 1052.500 348.868 C 1056.900 349.958, 1064.100 351.400, 1068.500 352.071 C 1072.900 352.743, 1083.475 353.273, 1092 353.248 C 1101.178 353.221, 1111.285 352.568, 1116.781 351.645 C 1121.885 350.788, 1129.458 349.134, 1133.609 347.970 C 1137.759 346.805, 1143.933 344.799, 1147.328 343.513 C 1150.722 342.226, 1156.449 339.843, 1160.054 338.217 C 1163.658 336.591, 1170.408 332.884, 1175.054 329.980 C 1179.699 327.076, 1186.076 322.725, 1189.225 320.311 C 1192.374 317.897, 1198.824 312.254, 1203.560 307.771 C 1208.296 303.289, 1215.699 294.922, 1220.012 289.178 C 1224.324 283.434, 1230.534 273.507, 1233.811 267.117 C 1237.088 260.728, 1241.145 251.675, 1242.828 247 C 1244.510 242.325, 1246.778 234.900, 1247.868 230.500 C 1248.958 226.100, 1250.397 218.900, 1251.067 214.500 C 1251.736 210.100, 1252.284 199.750, 1252.284 191.500 C 1252.284 183.250, 1251.736 172.900, 1251.067 168.500 C 1250.397 164.100, 1248.971 156.900, 1247.897 152.500 C 1246.823 148.100, 1243.857 139.175, 1241.306 132.668 C 1238.754 126.160, 1234.436 116.935, 1231.708 112.168 C 1228.981 107.400, 1224.153 99.895, 1220.979 95.489 C 1217.805 91.082, 1211.138 83.361, 1206.164 78.329 C 1201.190 73.298, 1193.606 66.534, 1189.310 63.297 C 1185.015 60.060, 1178.125 55.342, 1174 52.811 C 1169.875 50.281, 1163.350 46.776, 1159.500 45.023 C 1155.650 43.270, 1149.575 40.787, 1146 39.505 C 1142.425 38.224, 1136.107 36.263, 1131.961 35.148 C 1127.814 34.034, 1120.057 32.419, 1114.722 31.561 C 1108.826 30.612, 1099.232 30.032, 1090.261 30.082 C 1080.798 30.134, 1071.911 30.807, 1065.500 31.957 M 1073 60.532 C 1067.775 61.262, 1059.450 63.032, 1054.500 64.467 C 1049.550 65.901, 1040.550 69.488, 1034.500 72.439 C 1028.450 75.389, 1019.589 80.590, 1014.808 83.997 C 1010.027 87.404, 1001.905 94.536, 996.759 99.846 C 991.613 105.156, 984.637 113.704, 981.256 118.843 C 977.875 123.981, 973.028 133.116, 970.485 139.142 C 967.941 145.168, 964.798 154.285, 963.500 159.402 C 962.202 164.520, 960.664 173.835, 960.083 180.103 C 959.383 187.646, 959.345 195.114, 959.969 202.188 C 960.487 208.066, 961.895 217.066, 963.096 222.188 C 964.298 227.310, 966.344 234.327, 967.644 237.781 C 968.943 241.236, 971.638 247.311, 973.631 251.281 C 975.625 255.252, 979.897 262.363, 983.124 267.085 C 986.352 271.807, 992.707 279.501, 997.246 284.184 C 1001.786 288.867, 1008.875 295.198, 1013 298.253 C 1017.125 301.308, 1024.807 306.098, 1030.071 308.897 C 1035.335 311.696, 1043.435 315.299, 1048.071 316.904 C 1052.707 318.508, 1059.875 320.574, 1064 321.495 C 1068.125 322.416, 1078.115 323.411, 1086.200 323.707 C 1095.283 324.039, 1104.072 323.788, 1109.200 323.049 C 1113.765 322.391, 1121.341 320.781, 1126.036 319.471 C 1130.731 318.162, 1137.885 315.742, 1141.934 314.094 C 1145.983 312.446, 1152.942 308.980, 1157.398 306.391 C 1161.854 303.802, 1168.611 299.203, 1172.413 296.170 C 1176.215 293.137, 1182.015 287.920, 1185.302 284.577 C 1188.590 281.235, 1193.603 275.350, 1196.444 271.500 C 1199.285 267.650, 1203.078 262.081, 1204.873 259.124 C 1206.668 256.167, 1209.267 251.217, 1210.648 248.124 C 1212.029 245.031, 1214.185 239.800, 1215.439 236.500 C 1216.693 233.200, 1218.781 226.225, 1220.079 221 C 1222.136 212.723, 1222.444 209.053, 1222.470 192.500 C 1222.493 177.792, 1222.089 171.591, 1220.679 165.047 C 1219.677 160.398, 1217.936 153.873, 1216.810 150.547 C 1215.684 147.221, 1212.997 140.685, 1210.840 136.022 C 1208.682 131.360, 1205.492 125.285, 1203.750 122.522 C 1202.008 119.760, 1198.017 114.092, 1194.881 109.926 C 1191.745 105.761, 1186.014 99.423, 1182.147 95.842 C 1178.280 92.262, 1172.727 87.506, 1169.808 85.273 C 1166.888 83.040, 1160.488 78.926, 1155.584 76.131 C 1150.681 73.336, 1143.031 69.656, 1138.584 67.953 C 1134.138 66.251, 1126.900 64.004, 1122.500 62.960 C 1118.100 61.916, 1110.450 60.601, 1105.500 60.039 C 1100.550 59.477, 1093.350 59.059, 1089.500 59.111 C 1085.650 59.163, 1078.225 59.803, 1073 60.532 M 909.477 350.881 C 889.371 365.989, 875.761 377.044, 868.144 384.453 C 861.899 390.529, 853.485 399.601, 849.446 404.614 C 845.408 409.627, 838.931 418.602, 835.053 424.560 C 831.175 430.517, 825.118 441.266, 821.593 448.446 C 818.068 455.626, 813.585 465.821, 811.631 471.101 C 809.677 476.382, 806.725 486.057, 805.070 492.601 C 803.414 499.146, 801.312 509, 800.398 514.500 C 799.099 522.309, 798.634 533.730, 798.277 566.622 C 797.880 603.075, 798.035 609.588, 799.426 615.019 C 800.311 618.470, 802.621 623.908, 804.562 627.102 C 806.502 630.295, 810.207 634.776, 812.795 637.058 C 815.383 639.341, 819.525 642.215, 822 643.446 C 824.475 644.676, 828.750 646.317, 831.500 647.092 C 835.741 648.286, 875.383 648.500, 1092.500 648.500 L 1348.500 648.500 1354.249 646.304 C 1357.411 645.097, 1362.433 642.492, 1365.409 640.516 C 1368.386 638.541, 1372.347 635.029, 1374.213 632.712 C 1376.078 630.395, 1378.507 626.925, 1379.610 625 C 1380.714 623.075, 1382.265 619.250, 1383.058 616.500 C 1384.207 612.516, 1384.499 603.370, 1384.494 571.500 C 1384.489 537.961, 1384.198 529.643, 1382.692 520 C 1381.703 513.675, 1379.752 503.811, 1378.355 498.080 C 1376.958 492.350, 1374.238 483.125, 1372.311 477.580 C 1370.383 472.036, 1366.692 462.756, 1364.108 456.958 C 1361.523 451.160, 1356.602 441.710, 1353.172 435.958 C 1349.742 430.206, 1343.411 420.775, 1339.101 415 C 1334.792 409.225, 1327.167 400.170, 1322.157 394.878 C 1317.146 389.586, 1309.323 382.098, 1304.773 378.238 C 1300.223 374.378, 1283.961 362.170, 1268.635 351.110 C 1253.309 340.049, 1240.484 331.009, 1240.135 331.020 C 1239.786 331.030, 1235.782 336.290, 1231.238 342.708 C 1226.694 349.126, 1223.319 354.668, 1223.738 355.024 C 1224.157 355.380, 1237.550 365.083, 1253.500 376.586 C 1279.154 395.087, 1284.173 399.173, 1297 412 C 1305.220 420.220, 1314.239 430.390, 1317.823 435.481 C 1321.301 440.421, 1326.539 448.746, 1329.464 453.981 C 1332.388 459.217, 1336.843 468.263, 1339.365 474.084 C 1341.887 479.905, 1345.492 490.030, 1347.376 496.584 C 1349.260 503.138, 1351.633 513.225, 1352.651 519 C 1354.247 528.066, 1354.500 535.056, 1354.500 570.168 L 1354.500 610.837 1352 613.513 C 1350.625 614.986, 1348.285 616.822, 1346.800 617.595 C 1344.501 618.791, 1306.462 619, 1091.284 619 C 846.949 619, 838.353 618.938, 835.009 617.145 C 832.970 616.051, 830.580 613.485, 829.187 610.895 L 826.825 606.500 827.321 569 C 827.666 542.963, 828.286 528.290, 829.349 521 C 830.191 515.225, 832.003 506.225, 833.376 501 C 834.748 495.775, 837.268 487.549, 838.974 482.721 C 840.681 477.892, 843.641 470.509, 845.553 466.314 C 847.465 462.119, 851.363 454.595, 854.215 449.593 C 857.068 444.592, 860.984 438.250, 862.918 435.500 C 864.852 432.750, 868.762 427.575, 871.606 424 C 874.449 420.425, 881.889 412.516, 888.138 406.424 C 895.590 399.160, 909.402 387.870, 928.274 373.617 C 944.099 361.665, 956.763 351.426, 956.416 350.865 C 956.069 350.303, 952.111 345.009, 947.620 339.100 L 939.455 328.356 909.477 350.881 M 495.985 353.750 L 483.500 366.500 496.250 354.015 C 503.262 347.148, 509 341.411, 509 341.265 C 509 341.119, 508.881 341, 508.735 341 C 508.589 341, 502.852 346.738, 495.985 353.750 M 332 480.724 C 328.425 480.847, 321.450 481.447, 316.500 482.057 C 311.550 482.667, 303.900 484.054, 299.500 485.140 C 295.100 486.225, 287.225 488.694, 282 490.626 C 276.775 492.557, 268.679 496.163, 264.009 498.637 C 259.339 501.112, 251.878 505.558, 247.430 508.518 C 242.982 511.478, 235.021 517.754, 229.740 522.465 C 224.459 527.176, 217.330 534.511, 213.898 538.765 C 210.467 543.019, 205.314 550.100, 202.449 554.500 C 199.584 558.900, 195.447 566.100, 193.257 570.500 C 191.066 574.900, 187.888 582.325, 186.194 587 C 184.500 591.675, 182.222 599.100, 181.132 603.500 C 180.042 607.900, 178.582 615.100, 177.889 619.500 C 177.195 623.900, 176.627 634.250, 176.627 642.500 C 176.627 650.750, 177.195 661.100, 177.889 665.500 C 178.582 669.900, 180.042 677.100, 181.132 681.500 C 182.222 685.900, 184.666 693.682, 186.564 698.793 C 188.462 703.904, 191.375 710.782, 193.039 714.077 C 194.702 717.372, 197.907 723.080, 200.161 726.763 C 202.415 730.445, 206.966 737.015, 210.275 741.362 C 213.585 745.709, 219.605 752.546, 223.653 756.555 C 227.702 760.565, 234.723 766.721, 239.257 770.237 C 243.791 773.752, 250.200 778.238, 253.500 780.205 C 256.800 782.172, 263.100 785.574, 267.500 787.764 C 271.900 789.955, 278.763 792.920, 282.752 794.353 C 286.741 795.786, 293.491 797.843, 297.752 798.924 C 302.013 800.005, 309.976 801.605, 315.446 802.478 C 320.917 803.352, 331.362 804.067, 338.657 804.067 C 345.952 804.067, 356.326 803.359, 361.710 802.494 C 367.095 801.628, 374.200 800.242, 377.500 799.413 C 380.800 798.583, 387.100 796.747, 391.500 795.331 C 395.900 793.916, 405.350 789.775, 412.500 786.129 C 419.650 782.483, 430 776.160, 435.500 772.077 C 441 767.995, 449.132 760.986, 453.571 756.503 C 458.011 752.020, 464.339 744.785, 467.634 740.426 C 470.929 736.067, 475.235 729.800, 477.203 726.500 C 479.171 723.200, 482.578 716.900, 484.774 712.500 C 486.971 708.100, 490.367 699.775, 492.322 694 C 494.276 688.225, 496.558 680.125, 497.391 676 C 498.224 671.875, 499.432 664.225, 500.075 659 C 500.763 653.406, 501.006 644.156, 500.666 636.500 C 500.349 629.350, 499.378 619.557, 498.509 614.738 C 497.640 609.919, 495.792 602.044, 494.404 597.238 C 493.015 592.432, 490.069 584.225, 487.857 579 C 485.644 573.775, 481.751 565.923, 479.205 561.551 C 476.660 557.180, 472.051 550.205, 468.963 546.051 C 465.876 541.898, 459.807 534.742, 455.476 530.149 C 451.145 525.556, 443.979 518.976, 439.551 515.527 C 435.123 512.079, 428.470 507.408, 424.767 505.149 C 421.063 502.890, 414.830 499.429, 410.916 497.458 C 407.001 495.486, 400.356 492.539, 396.149 490.909 C 391.942 489.278, 384.225 486.880, 379 485.580 C 373.775 484.280, 367.475 482.897, 365 482.508 C 362.525 482.119, 355.550 481.508, 349.500 481.150 C 343.450 480.793, 335.575 480.601, 332 480.724 M 318 511.427 C 313.875 512.168, 307.754 513.495, 304.399 514.376 C 301.043 515.257, 295.285 517.112, 291.603 518.497 C 287.922 519.883, 282.117 522.424, 278.705 524.145 C 275.292 525.865, 268.675 529.799, 264 532.886 C 259.325 535.973, 251.419 542.424, 246.431 547.221 C 241.443 552.019, 234.778 559.533, 231.619 563.920 C 228.461 568.306, 223.477 576.532, 220.543 582.198 C 217.610 587.864, 214.070 595.875, 212.675 600 C 211.281 604.125, 209.321 611.325, 208.320 616 C 206.942 622.435, 206.500 628.874, 206.500 642.500 C 206.500 656.161, 206.940 662.541, 208.324 668.966 C 209.328 673.622, 211.402 681.047, 212.934 685.466 C 214.466 689.885, 217.320 696.677, 219.277 700.561 C 221.234 704.444, 225.549 711.679, 228.866 716.639 C 232.183 721.598, 239.308 730.143, 244.699 735.627 C 251.116 742.157, 258.047 747.934, 264.774 752.362 C 270.424 756.082, 279.748 761.144, 285.493 763.612 C 291.238 766.080, 300.304 769.207, 305.641 770.561 C 310.977 771.914, 320.691 773.545, 327.227 774.185 C 336.411 775.084, 341.804 775.070, 350.964 774.126 C 357.483 773.454, 366.956 771.797, 372.015 770.443 C 377.073 769.089, 384.652 766.617, 388.856 764.949 C 393.060 763.281, 400.046 759.870, 404.379 757.369 C 408.713 754.869, 415.463 750.448, 419.379 747.545 C 423.296 744.642, 430.111 738.494, 434.525 733.883 C 438.939 729.272, 445.079 721.675, 448.168 717 C 451.258 712.325, 455.805 704.450, 458.274 699.500 C 460.742 694.550, 463.949 686.736, 465.401 682.136 C 466.852 677.535, 468.769 669.660, 469.661 664.636 C 470.666 658.975, 471.267 650.174, 471.240 641.500 C 471.210 631.210, 470.630 624.747, 469.052 617.113 C 467.872 611.400, 465.577 602.889, 463.952 598.200 C 462.327 593.511, 459.177 586.297, 456.950 582.170 C 454.724 578.042, 450.787 571.478, 448.201 567.583 C 445.616 563.687, 439.051 555.896, 433.614 550.269 C 427.257 543.691, 420.294 537.746, 414.114 533.620 C 408.826 530.090, 401.350 525.637, 397.500 523.724 C 393.650 521.810, 386.450 518.871, 381.500 517.191 C 376.550 515.510, 369.125 513.397, 365 512.493 C 360.457 511.499, 351.191 510.699, 341.500 510.466 C 330.844 510.209, 322.995 510.531, 318 511.427 M 157.896 799.595 C 142.828 810.922, 128.027 822.284, 125.004 824.845 C 121.982 827.405, 115.741 833.100, 111.137 837.500 C 106.533 841.900, 99.407 849.676, 95.301 854.779 C 91.196 859.883, 84.914 868.431, 81.342 873.775 C 77.769 879.118, 72.451 887.993, 69.523 893.495 C 66.596 898.998, 62.154 908.675, 59.653 915 C 57.152 921.325, 53.766 931.225, 52.128 937 C 50.491 942.775, 48.443 951.100, 47.578 955.500 C 46.713 959.900, 45.329 969.347, 44.503 976.494 C 43.445 985.636, 43.005 999.567, 43.017 1023.494 C 43.031 1049.377, 43.382 1059.139, 44.489 1064.364 C 45.289 1068.139, 47.149 1073.285, 48.623 1075.800 C 50.097 1078.316, 53.097 1082.320, 55.289 1084.698 C 57.482 1087.077, 61.836 1090.578, 64.966 1092.479 C 68.095 1094.380, 73.303 1096.625, 76.538 1097.468 C 81.747 1098.825, 111.715 1099, 338.500 1099 C 565.344 1099, 595.252 1098.825, 600.465 1097.467 C 603.702 1096.624, 608.521 1094.753, 611.174 1093.309 C 613.827 1091.865, 618.421 1088.143, 621.382 1085.038 C 624.344 1081.933, 627.891 1077.166, 629.264 1074.446 C 630.637 1071.726, 632.310 1067.025, 632.980 1064 C 633.874 1059.970, 634.078 1047.675, 633.742 1018 C 633.383 986.159, 632.927 975.469, 631.609 968 C 630.688 962.775, 628.626 953.325, 627.028 947 C 625.430 940.675, 622.711 931.450, 620.987 926.500 C 619.263 921.550, 614.788 911.200, 611.042 903.500 C 607.296 895.800, 600.971 884.550, 596.985 878.500 C 593 872.450, 586.684 863.659, 582.951 858.964 C 579.218 854.269, 570.949 845.376, 564.575 839.201 C 558.201 833.026, 547.026 823.554, 539.743 818.152 C 532.459 812.750, 517.882 802.222, 507.348 794.757 L 488.196 781.184 479.639 793.205 L 471.082 805.226 498.291 824.732 C 513.256 835.461, 527.525 845.865, 530 847.853 C 532.475 849.841, 538.910 855.727, 544.299 860.933 C 549.689 866.138, 556.507 873.345, 559.450 876.949 C 562.394 880.552, 567.818 888, 571.504 893.500 C 575.190 899, 580.838 908.900, 584.056 915.500 C 587.274 922.100, 591.706 932.900, 593.905 939.500 C 596.105 946.100, 599.118 957.125, 600.602 964 C 603.239 976.221, 603.308 977.426, 603.694 1018 C 604.076 1058.164, 604.024 1059.603, 602.084 1062.710 C 600.981 1064.475, 598.279 1066.837, 596.079 1067.960 C 592.084 1069.998, 591.776 1070, 338.752 1070 L 85.424 1070 80.962 1067.750 C 78.097 1066.305, 75.858 1064.247, 74.706 1062 C 73.045 1058.760, 72.941 1055.385, 73.305 1016.500 C 73.689 975.576, 73.766 974.188, 76.343 962.318 C 77.797 955.617, 80.846 944.448, 83.118 937.497 C 85.390 930.546, 90.304 918.703, 94.038 911.179 C 97.772 903.656, 103.953 893, 107.774 887.500 C 111.595 882, 118.533 873.225, 123.193 868 C 127.852 862.775, 134.459 855.918, 137.875 852.763 C 141.291 849.608, 156.779 837.509, 172.293 825.877 C 187.807 814.244, 201.135 804.137, 201.912 803.416 C 203.110 802.303, 202.010 800.356, 194.646 790.553 C 189.874 784.199, 185.816 779, 185.630 779 C 185.444 779, 172.963 788.268, 157.896 799.595 M 1096.986 878.750 L 1083.500 892.500 1097.250 879.014 C 1104.813 871.597, 1111 865.409, 1111 865.264 C 1111 865.119, 1110.881 865, 1110.736 865 C 1110.591 865, 1104.403 871.188, 1096.986 878.750 M 1099.477 913.250 L 1091.500 921.500 1099.750 913.523 C 1104.287 909.136, 1108 905.424, 1108 905.273 C 1108 905.123, 1107.877 905, 1107.727 905 C 1107.576 905, 1103.864 908.712, 1099.477 913.250 M 855.931 929.750 C 852.903 932.913, 849.557 936.625, 848.496 938 C 847.435 939.375, 847.257 939.825, 848.101 939 C 848.945 938.175, 852.489 934.462, 855.976 930.750 C 859.464 927.038, 862.119 924, 861.877 924 C 861.635 924, 858.960 926.587, 855.931 929.750 M 856.068 986.904 C 854.931 988.502, 854 990.302, 854 990.904 C 854 991.593, 856.136 991.931, 859.750 991.815 L 865.500 991.630 860.250 991.263 C 857.362 991.061, 855 990.651, 855 990.352 C 855 990.053, 855.931 988.502, 857.068 986.904 C 858.206 985.307, 858.911 984, 858.636 984 C 858.361 984, 857.206 985.307, 856.068 986.904" stroke="none" fill="#231f20" fill-rule="evenodd"/><path d="M 695.923 204.923 C 694.315 206.531, 693 208.578, 693 209.473 C 693 210.367, 693.672 212.398, 694.492 213.985 C 695.313 215.573, 698.576 218.851, 701.742 221.271 C 704.909 223.691, 710.650 227.487, 714.500 229.706 C 718.350 231.925, 724.784 235.428, 728.797 237.490 C 732.810 239.552, 735.941 241.392, 735.755 241.579 C 735.568 241.765, 732.060 242.397, 727.958 242.984 C 723.856 243.571, 717.575 244.526, 714 245.106 C 710.425 245.686, 703 247.035, 697.500 248.105 C 692 249.174, 685.475 250.548, 683 251.158 C 680.525 251.768, 673.100 253.823, 666.500 255.725 C 659.900 257.626, 651.350 260.234, 647.500 261.520 C 643.650 262.807, 637.350 265.054, 633.500 266.515 C 629.650 267.975, 622.675 270.811, 618 272.816 C 613.325 274.822, 604.550 278.879, 598.500 281.833 C 592.450 284.786, 582.550 289.957, 576.500 293.324 C 570.450 296.691, 559.315 303.595, 551.756 308.668 C 544.198 313.740, 532.498 322.283, 525.756 327.652 C 519.015 333.022, 507.484 343.284, 500.132 350.457 C 492.780 357.631, 483.296 367.550, 479.057 372.500 C 474.817 377.450, 469 384.551, 466.129 388.280 C 463.258 392.009, 457.862 399.659, 454.138 405.280 C 450.414 410.901, 445.074 419.550, 442.271 424.500 C 439.468 429.450, 435.184 437.775, 432.751 443 C 430.318 448.225, 427.041 455.585, 425.468 459.357 C 422.825 465.695, 422.721 466.413, 424.093 468.857 C 425.251 470.920, 426.337 471.500, 429.038 471.500 C 432.407 471.500, 432.803 471.046, 443.803 454.526 C 450.020 445.191, 455.442 437.316, 455.851 437.026 C 456.261 436.737, 457.683 434.925, 459.012 433 C 460.341 431.075, 464.345 425.900, 467.911 421.500 C 471.476 417.100, 478.003 409.450, 482.414 404.500 C 486.825 399.550, 495.174 390.834, 500.967 385.130 C 506.760 379.427, 515.775 371.082, 521 366.587 C 526.225 362.092, 534.325 355.460, 539 351.851 C 543.675 348.241, 551.775 342.364, 557 338.791 C 562.225 335.218, 570.054 330.157, 574.399 327.546 C 578.743 324.935, 583.918 321.873, 585.899 320.742 C 587.879 319.611, 596.028 315.421, 604.006 311.432 C 611.985 307.442, 623.235 302.294, 629.006 299.990 C 634.778 297.687, 644.124 294.268, 649.776 292.393 C 655.428 290.518, 666.003 287.429, 673.276 285.529 C 680.549 283.629, 689.875 281.421, 694 280.623 C 698.125 279.825, 705.100 278.682, 709.500 278.083 C 713.900 277.483, 721.284 276.545, 725.909 275.997 C 730.534 275.448, 736.046 275, 738.159 275 C 740.272 275, 742 275.239, 742 275.532 C 742 275.825, 736.337 284.425, 729.416 294.644 C 722.495 304.863, 715.563 315.986, 714.012 319.362 C 712.461 322.738, 710.641 327.369, 709.967 329.654 C 709.281 331.979, 709.035 335.371, 709.408 337.362 C 709.858 339.760, 711.275 341.905, 713.765 343.958 C 716.773 346.437, 718.368 347, 722.387 347 C 726.575 347, 728.102 346.408, 732.519 343.073 C 735.380 340.913, 739.921 336.571, 742.610 333.424 C 745.300 330.276, 751.775 321.761, 757 314.500 C 762.225 307.239, 770.079 296.394, 774.453 290.399 C 778.828 284.405, 784.747 276.049, 787.606 271.831 C 790.466 267.614, 793.094 262.847, 793.448 261.239 C 793.862 259.350, 793.368 256.400, 792.051 252.907 C 790.930 249.933, 788.226 245.423, 786.044 242.885 C 783.861 240.347, 778.121 235.581, 773.288 232.294 C 768.454 229.007, 759.885 223.744, 754.244 220.599 C 748.604 217.454, 740.672 213.370, 736.618 211.522 C 732.565 209.675, 727.055 207.398, 724.374 206.462 C 721.693 205.526, 716.350 204.139, 712.500 203.381 C 708.650 202.623, 704.003 202.002, 702.173 202.001 C 699.828 202, 697.983 202.863, 695.923 204.923 M 1162.418 796.750 C 1161.548 797.712, 1156.691 804.800, 1151.625 812.500 C 1146.559 820.200, 1139.058 830.822, 1134.957 836.104 C 1130.856 841.386, 1124.821 849.036, 1121.548 853.104 C 1118.274 857.172, 1107.474 868.630, 1097.548 878.567 C 1087.621 888.504, 1075.675 899.799, 1071 903.668 C 1066.325 907.537, 1058 914.069, 1052.500 918.184 C 1047 922.299, 1038.450 928.354, 1033.500 931.639 C 1028.550 934.924, 1022.250 938.926, 1019.500 940.531 C 1016.750 942.136, 1012.700 944.478, 1010.500 945.735 C 1008.300 946.991, 1000.875 950.876, 994 954.366 C 987.125 957.856, 977.675 962.310, 973 964.262 C 968.325 966.215, 961.575 968.939, 958 970.317 C 954.425 971.695, 948.054 973.970, 943.842 975.373 C 939.630 976.776, 931.080 979.268, 924.842 980.910 C 918.604 982.552, 909.900 984.633, 905.500 985.534 C 901.100 986.435, 894.800 987.588, 891.500 988.095 C 888.200 988.603, 880.100 989.680, 873.500 990.489 C 866.900 991.298, 859.813 991.969, 857.750 991.980 C 855.688 991.991, 854 991.552, 854 991.005 C 854 990.457, 858.881 982.920, 864.846 974.255 C 870.812 965.590, 877.295 955.575, 879.253 952 C 881.212 948.425, 883.830 942.496, 885.071 938.825 C 887.151 932.674, 887.215 931.851, 885.879 928.341 C 885.051 926.165, 882.987 923.560, 881.067 922.266 C 878.742 920.699, 876.235 920, 872.942 920 C 868.924 920, 867.416 920.604, 863.290 923.865 C 860.601 925.990, 856.058 930.358, 853.195 933.571 C 850.332 936.783, 843.154 946.102, 837.244 954.278 C 831.335 962.455, 823.670 973.050, 820.211 977.823 C 816.753 982.595, 811.353 990.282, 808.211 994.905 C 802.939 1002.665, 802.510 1003.718, 802.628 1008.610 C 802.719 1012.332, 803.526 1015.221, 805.339 1018.315 C 806.759 1020.738, 809.547 1024.347, 811.536 1026.336 C 813.524 1028.324, 817.929 1031.891, 821.325 1034.262 C 824.721 1036.633, 831.550 1040.875, 836.500 1043.690 C 841.450 1046.504, 848.425 1050.327, 852 1052.185 C 855.575 1054.043, 861.425 1056.776, 865 1058.257 C 868.575 1059.739, 874.200 1061.644, 877.500 1062.491 C 880.800 1063.338, 885.849 1064.310, 888.719 1064.650 C 892.032 1065.042, 895.059 1064.804, 897.007 1063.997 C 898.695 1063.298, 900.509 1061.917, 901.038 1060.929 C 901.567 1059.940, 902 1057.846, 902 1056.274 C 902 1054.209, 900.821 1052.301, 897.750 1049.396 C 895.413 1047.185, 891.925 1044.233, 890 1042.835 C 888.075 1041.438, 880.465 1036.997, 873.089 1032.967 C 862.484 1027.173, 860.078 1025.482, 861.589 1024.890 C 862.640 1024.478, 864.850 1024.108, 866.500 1024.067 C 868.150 1024.027, 874.675 1023.120, 881 1022.052 C 887.325 1020.984, 894.750 1019.632, 897.500 1019.046 C 900.250 1018.461, 903.850 1017.708, 905.500 1017.372 C 907.150 1017.036, 913.675 1015.426, 920 1013.793 C 926.325 1012.161, 937.567 1008.826, 944.981 1006.381 C 952.396 1003.936, 964.096 999.658, 970.981 996.874 C 977.867 994.089, 990.540 988.318, 999.145 984.048 C 1007.750 979.778, 1020.247 972.958, 1026.916 968.893 C 1033.586 964.827, 1040.518 960.600, 1042.321 959.500 C 1044.123 958.400, 1049.626 954.581, 1054.549 951.013 C 1059.472 947.445, 1064.400 943.787, 1065.500 942.884 C 1066.600 941.982, 1072 937.500, 1077.500 932.925 C 1083 928.349, 1091.262 920.982, 1095.861 916.553 C 1100.460 912.124, 1108.381 903.775, 1113.465 898 C 1118.548 892.225, 1125.924 883.285, 1129.855 878.134 C 1133.787 872.983, 1140.327 863.523, 1144.389 857.111 C 1148.451 850.699, 1154.488 840.288, 1157.804 833.976 C 1161.120 827.664, 1165.671 818.170, 1167.917 812.879 C 1170.162 807.587, 1172 802.144, 1172 800.784 C 1172 799.423, 1171.177 797.565, 1170.171 796.655 C 1169.165 795.745, 1167.365 795, 1166.171 795 C 1164.977 795, 1163.288 795.788, 1162.418 796.750" stroke="none" fill="#000000" fill-rule="evenodd"/><path d="M 0 567.501 L 0 1135.001 703.250 1134.751 L 1406.500 1134.500 1406.751 567.250 L 1407.002 -0 703.501 -0 L 0 0 0 567.501 M 0.497 568 C 0.497 880.125, 0.611 1007.813, 0.750 851.750 C 0.889 695.688, 0.889 440.313, 0.750 284.250 C 0.611 128.188, 0.497 255.875, 0.497 568 M 1065.500 31.957 C 1060 32.943, 1052.707 34.489, 1049.294 35.391 C 1045.880 36.294, 1039.085 38.560, 1034.193 40.426 C 1029.300 42.293, 1022.418 45.269, 1018.899 47.038 C 1015.379 48.807, 1008.222 53.096, 1002.993 56.569 C 997.764 60.041, 990.114 65.781, 985.993 69.323 C 981.872 72.865, 975.547 79.079, 971.938 83.132 C 968.328 87.184, 963.577 92.975, 961.378 96 C 959.180 99.025, 955.638 104.396, 953.506 107.935 C 951.375 111.474, 947.924 117.898, 945.839 122.211 C 943.753 126.523, 940.489 134.653, 938.586 140.276 C 936.682 145.899, 934.410 154.025, 933.536 158.333 C 932.663 162.641, 931.456 170.966, 930.854 176.833 C 930.253 182.700, 930.036 192.675, 930.372 199 C 930.709 205.325, 931.679 214.443, 932.528 219.262 C 933.377 224.081, 935.209 231.956, 936.598 236.762 C 937.988 241.568, 941.120 250.225, 943.558 256 C 945.997 261.775, 950.242 270.237, 952.992 274.805 C 955.743 279.372, 960.645 286.572, 963.887 290.805 C 967.128 295.037, 974.217 302.809, 979.640 308.076 C 985.063 313.343, 993.848 320.662, 999.162 324.340 C 1004.476 328.017, 1012.576 333.014, 1017.162 335.444 C 1021.748 337.874, 1029.775 341.443, 1035 343.374 C 1040.225 345.306, 1048.100 347.778, 1052.500 348.868 C 1056.900 349.958, 1064.100 351.400, 1068.500 352.071 C 1072.900 352.743, 1083.475 353.273, 1092 353.248 C 1101.178 353.221, 1111.285 352.568, 1116.781 351.645 C 1121.885 350.788, 1129.458 349.134, 1133.609 347.970 C 1137.759 346.805, 1143.933 344.799, 1147.328 343.513 C 1150.722 342.226, 1156.449 339.843, 1160.054 338.217 C 1163.658 336.591, 1170.408 332.884, 1175.054 329.980 C 1179.699 327.076, 1186.076 322.725, 1189.225 320.311 C 1192.374 317.897, 1198.824 312.254, 1203.560 307.771 C 1208.296 303.289, 1215.699 294.922, 1220.012 289.178 C 1224.324 283.434, 1230.534 273.507, 1233.811 267.117 C 1237.088 260.728, 1241.145 251.675, 1242.828 247 C 1244.510 242.325, 1246.778 234.900, 1247.868 230.500 C 1248.958 226.100, 1250.397 218.900, 1251.067 214.500 C 1251.736 210.100, 1252.284 199.750, 1252.284 191.500 C 1252.284 183.250, 1251.736 172.900, 1251.067 168.500 C 1250.397 164.100, 1248.971 156.900, 1247.897 152.500 C 1246.823 148.100, 1243.857 139.175, 1241.306 132.668 C 1238.754 126.160, 1234.436 116.935, 1231.708 112.168 C 1228.981 107.400, 1224.153 99.895, 1220.979 95.489 C 1217.805 91.082, 1211.138 83.361, 1206.164 78.329 C 1201.190 73.298, 1193.606 66.534, 1189.310 63.297 C 1185.015 60.060, 1178.125 55.342, 1174 52.811 C 1169.875 50.281, 1163.350 46.776, 1159.500 45.023 C 1155.650 43.270, 1149.575 40.787, 1146 39.505 C 1142.425 38.224, 1136.107 36.263, 1131.961 35.148 C 1127.814 34.034, 1120.057 32.419, 1114.722 31.561 C 1108.826 30.612, 1099.232 30.032, 1090.261 30.082 C 1080.798 30.134, 1071.911 30.807, 1065.500 31.957 M 1073 60.532 C 1067.775 61.262, 1059.450 63.032, 1054.500 64.467 C 1049.550 65.901, 1040.550 69.488, 1034.500 72.439 C 1028.450 75.389, 1019.589 80.590, 1014.808 83.997 C 1010.027 87.404, 1001.905 94.536, 996.759 99.846 C 991.613 105.156, 984.637 113.704, 981.256 118.843 C 977.875 123.981, 973.028 133.116, 970.485 139.142 C 967.941 145.168, 964.798 154.285, 963.500 159.402 C 962.202 164.520, 960.664 173.835, 960.083 180.103 C 959.383 187.646, 959.345 195.114, 959.969 202.188 C 960.487 208.066, 961.895 217.066, 963.096 222.188 C 964.298 227.310, 966.344 234.327, 967.644 237.781 C 968.943 241.236, 971.638 247.311, 973.631 251.281 C 975.625 255.252, 979.897 262.363, 983.124 267.085 C 986.352 271.807, 992.707 279.501, 997.246 284.184 C 1001.786 288.867, 1008.875 295.198, 1013 298.253 C 1017.125 301.308, 1024.807 306.098, 1030.071 308.897 C 1035.335 311.696, 1043.435 315.299, 1048.071 316.904 C 1052.707 318.508, 1059.875 320.574, 1064 321.495 C 1068.125 322.416, 1078.115 323.411, 1086.200 323.707 C 1095.283 324.039, 1104.072 323.788, 1109.200 323.049 C 1113.765 322.391, 1121.341 320.781, 1126.036 319.471 C 1130.731 318.162, 1137.885 315.742, 1141.934 314.094 C 1145.983 312.446, 1152.942 308.980, 1157.398 306.391 C 1161.854 303.802, 1168.611 299.203, 1172.413 296.170 C 1176.215 293.137, 1182.015 287.920, 1185.302 284.577 C 1188.590 281.235, 1193.603 275.350, 1196.444 271.500 C 1199.285 267.650, 1203.078 262.081, 1204.873 259.124 C 1206.668 256.167, 1209.267 251.217, 1210.648 248.124 C 1212.029 245.031, 1214.185 239.800, 1215.439 236.500 C 1216.693 233.200, 1218.781 226.225, 1220.079 221 C 1222.136 212.723, 1222.444 209.053, 1222.470 192.500 C 1222.493 177.792, 1222.089 171.591, 1220.679 165.047 C 1219.677 160.398, 1217.936 153.873, 1216.810 150.547 C 1215.684 147.221, 1212.997 140.685, 1210.840 136.022 C 1208.682 131.360, 1205.492 125.285, 1203.750 122.522 C 1202.008 119.760, 1198.017 114.092, 1194.881 109.926 C 1191.745 105.761, 1186.014 99.423, 1182.147 95.842 C 1178.280 92.262, 1172.727 87.506, 1169.808 85.273 C 1166.888 83.040, 1160.488 78.926, 1155.584 76.131 C 1150.681 73.336, 1143.031 69.656, 1138.584 67.953 C 1134.138 66.251, 1126.900 64.004, 1122.500 62.960 C 1118.100 61.916, 1110.450 60.601, 1105.500 60.039 C 1100.550 59.477, 1093.350 59.059, 1089.500 59.111 C 1085.650 59.163, 1078.225 59.803, 1073 60.532 M 695.596 204.313 C 693.803 206.106, 693 207.978, 693 210.366 C 693 213.339, 693.900 214.647, 699.432 219.716 C 702.983 222.970, 710.261 228.005, 715.682 230.959 C 721.082 233.901, 727.681 237.525, 730.347 239.014 L 735.193 241.720 728.847 242.398 C 725.356 242.772, 716.043 244.206, 708.152 245.585 C 700.260 246.965, 686.680 249.882, 677.974 252.068 C 669.268 254.253, 655.474 258.313, 647.322 261.088 C 639.170 263.864, 627.153 268.381, 620.618 271.126 C 614.083 273.872, 602.833 279.058, 595.618 282.653 C 588.403 286.247, 575.750 293.209, 567.500 298.124 C 559.250 303.039, 548.497 309.928, 543.605 313.432 C 538.713 316.937, 529.713 323.767, 523.605 328.611 C 517.497 333.454, 505.275 344.636, 496.443 353.459 C 487.612 362.281, 476.587 374.219, 471.943 379.987 C 467.300 385.755, 458.997 397.230, 453.493 405.487 C 447.989 413.744, 440.490 426.350, 436.828 433.500 C 433.167 440.650, 428.557 450.412, 426.585 455.193 C 424.613 459.975, 423 465.037, 423 466.443 C 423 467.850, 423.900 469.900, 425 471 C 426.100 472.100, 427.929 473, 429.064 473 C 430.199 473, 432.274 471.762, 433.675 470.250 C 435.076 468.738, 439.941 461.815, 444.486 454.868 C 449.030 447.920, 456.265 437.593, 460.562 431.919 C 464.859 426.245, 472.424 416.854, 477.372 411.051 C 482.321 405.248, 492.478 394.425, 499.942 387 C 507.407 379.575, 519.006 368.929, 525.718 363.343 C 532.430 357.756, 542.655 349.737, 548.439 345.521 C 554.223 341.306, 565.153 334.040, 572.728 329.374 C 580.302 324.709, 592.575 317.812, 600 314.048 C 607.425 310.284, 618.442 305.097, 624.482 302.522 C 630.522 299.947, 641.997 295.656, 649.982 292.987 C 657.967 290.319, 669 287.002, 674.500 285.616 C 680 284.231, 690.575 281.989, 698 280.635 C 705.425 279.280, 716.450 277.643, 722.500 276.997 C 728.550 276.351, 735.205 275.975, 737.290 276.161 L 741.080 276.500 729.663 293.252 C 723.383 302.465, 716.647 313.046, 714.693 316.765 C 712.739 320.483, 710.374 326.284, 709.436 329.655 C 707.801 335.535, 707.809 335.940, 709.616 339.629 C 710.652 341.743, 713.029 344.492, 714.898 345.737 C 717.095 347.200, 719.798 348, 722.549 348 C 726.041 348, 727.882 347.188, 732.841 343.460 C 736.163 340.963, 740.820 336.615, 743.190 333.797 C 745.561 330.980, 753.213 320.760, 760.197 311.087 C 767.180 301.414, 777.477 287.050, 783.079 279.167 C 791.278 267.629, 793.359 263.991, 793.751 260.516 C 794.116 257.282, 793.610 254.827, 791.734 250.729 C 790.356 247.721, 787.583 243.437, 785.570 241.210 C 783.558 238.982, 776.970 233.938, 770.931 230 C 764.892 226.062, 753.875 219.685, 746.448 215.828 C 739.021 211.972, 729.020 207.476, 724.223 205.838 C 718.445 203.865, 712.578 202.666, 706.846 202.288 C 698.506 201.737, 698.099 201.810, 695.596 204.313 M 909.477 350.881 C 889.371 365.989, 875.761 377.044, 868.144 384.453 C 861.899 390.529, 853.485 399.601, 849.446 404.614 C 845.408 409.627, 838.931 418.602, 835.053 424.560 C 831.175 430.517, 825.118 441.266, 821.593 448.446 C 818.068 455.626, 813.585 465.821, 811.631 471.101 C 809.677 476.382, 806.725 486.057, 805.070 492.601 C 803.414 499.146, 801.312 509, 800.398 514.500 C 799.099 522.309, 798.634 533.730, 798.277 566.622 C 797.880 603.075, 798.035 609.588, 799.426 615.019 C 800.311 618.470, 802.621 623.908, 804.562 627.102 C 806.502 630.295, 810.207 634.776, 812.795 637.058 C 815.383 639.341, 819.525 642.215, 822 643.446 C 824.475 644.676, 828.750 646.317, 831.500 647.092 C 835.741 648.286, 875.383 648.500, 1092.500 648.500 L 1348.500 648.500 1354.249 646.304 C 1357.411 645.097, 1362.433 642.492, 1365.409 640.516 C 1368.386 638.541, 1372.347 635.029, 1374.213 632.712 C 1376.078 630.395, 1378.507 626.925, 1379.610 625 C 1380.714 623.075, 1382.265 619.250, 1383.058 616.500 C 1384.207 612.516, 1384.499 603.370, 1384.494 571.500 C 1384.489 537.961, 1384.198 529.643, 1382.692 520 C 1381.703 513.675, 1379.752 503.811, 1378.355 498.080 C 1376.958 492.350, 1374.238 483.125, 1372.311 477.580 C 1370.383 472.036, 1366.692 462.756, 1364.108 456.958 C 1361.523 451.160, 1356.602 441.710, 1353.172 435.958 C 1349.742 430.206, 1343.411 420.775, 1339.101 415 C 1334.792 409.225, 1327.167 400.170, 1322.157 394.878 C 1317.146 389.586, 1309.323 382.098, 1304.773 378.238 C 1300.223 374.378, 1283.961 362.170, 1268.635 351.110 C 1253.309 340.049, 1240.484 331.009, 1240.135 331.020 C 1239.786 331.030, 1235.782 336.290, 1231.238 342.708 C 1226.694 349.126, 1223.319 354.668, 1223.738 355.024 C 1224.157 355.380, 1237.550 365.083, 1253.500 376.586 C 1279.154 395.087, 1284.173 399.173, 1297 412 C 1305.220 420.220, 1314.239 430.390, 1317.823 435.481 C 1321.301 440.421, 1326.539 448.746, 1329.464 453.981 C 1332.388 459.217, 1336.843 468.263, 1339.365 474.084 C 1341.887 479.905, 1345.492 490.030, 1347.376 496.584 C 1349.260 503.138, 1351.633 513.225, 1352.651 519 C 1354.247 528.066, 1354.500 535.056, 1354.500 570.168 L 1354.500 610.837 1352 613.513 C 1350.625 614.986, 1348.285 616.822, 1346.800 617.595 C 1344.501 618.791, 1306.462 619, 1091.284 619 C 846.949 619, 838.353 618.938, 835.009 617.145 C 832.970 616.051, 830.580 613.485, 829.187 610.895 L 826.825 606.500 827.321 569 C 827.666 542.963, 828.286 528.290, 829.349 521 C 830.191 515.225, 832.003 506.225, 833.376 501 C 834.748 495.775, 837.268 487.549, 838.974 482.721 C 840.681 477.892, 843.641 470.509, 845.553 466.314 C 847.465 462.119, 851.363 454.595, 854.215 449.593 C 857.068 444.592, 860.984 438.250, 862.918 435.500 C 864.852 432.750, 868.762 427.575, 871.606 424 C 874.449 420.425, 881.889 412.516, 888.138 406.424 C 895.590 399.160, 909.402 387.870, 928.274 373.617 C 944.099 361.665, 956.763 351.426, 956.416 350.865 C 956.069 350.303, 952.111 345.009, 947.620 339.100 L 939.455 328.356 909.477 350.881 M 332 480.724 C 328.425 480.847, 321.450 481.447, 316.500 482.057 C 311.550 482.667, 303.900 484.054, 299.500 485.140 C 295.100 486.225, 287.225 488.694, 282 490.626 C 276.775 492.557, 268.679 496.163, 264.009 498.637 C 259.339 501.112, 251.878 505.558, 247.430 508.518 C 242.982 511.478, 235.021 517.754, 229.740 522.465 C 224.459 527.176, 217.330 534.511, 213.898 538.765 C 210.467 543.019, 205.314 550.100, 202.449 554.500 C 199.584 558.900, 195.447 566.100, 193.257 570.500 C 191.066 574.900, 187.888 582.325, 186.194 587 C 184.500 591.675, 182.222 599.100, 181.132 603.500 C 180.042 607.900, 178.582 615.100, 177.889 619.500 C 177.195 623.900, 176.627 634.250, 176.627 642.500 C 176.627 650.750, 177.195 661.100, 177.889 665.500 C 178.582 669.900, 180.042 677.100, 181.132 681.500 C 182.222 685.900, 184.666 693.682, 186.564 698.793 C 188.462 703.904, 191.375 710.782, 193.039 714.077 C 194.702 717.372, 197.907 723.080, 200.161 726.763 C 202.415 730.445, 206.966 737.015, 210.275 741.362 C 213.585 745.709, 219.605 752.546, 223.653 756.555 C 227.702 760.565, 234.723 766.721, 239.257 770.237 C 243.791 773.752, 250.200 778.238, 253.500 780.205 C 256.800 782.172, 263.100 785.574, 267.500 787.764 C 271.900 789.955, 278.763 792.920, 282.752 794.353 C 286.741 795.786, 293.491 797.843, 297.752 798.924 C 302.013 800.005, 309.976 801.605, 315.446 802.478 C 320.917 803.352, 331.362 804.067, 338.657 804.067 C 345.952 804.067, 356.326 803.359, 361.710 802.494 C 367.095 801.628, 374.200 800.242, 377.500 799.413 C 380.800 798.583, 387.100 796.747, 391.500 795.331 C 395.900 793.916, 405.350 789.775, 412.500 786.129 C 419.650 782.483, 430 776.160, 435.500 772.077 C 441 767.995, 449.132 760.986, 453.571 756.503 C 458.011 752.020, 464.339 744.785, 467.634 740.426 C 470.929 736.067, 475.235 729.800, 477.203 726.500 C 479.171 723.200, 482.578 716.900, 484.774 712.500 C 486.971 708.100, 490.367 699.775, 492.322 694 C 494.276 688.225, 496.558 680.125, 497.391 676 C 498.224 671.875, 499.432 664.225, 500.075 659 C 500.763 653.406, 501.006 644.156, 500.666 636.500 C 500.349 629.350, 499.378 619.557, 498.509 614.738 C 497.640 609.919, 495.792 602.044, 494.404 597.238 C 493.015 592.432, 490.069 584.225, 487.857 579 C 485.644 573.775, 481.751 565.923, 479.205 561.551 C 476.660 557.180, 472.051 550.205, 468.963 546.051 C 465.876 541.898, 459.807 534.742, 455.476 530.149 C 451.145 525.556, 443.979 518.976, 439.551 515.527 C 435.123 512.079, 428.470 507.408, 424.767 505.149 C 421.063 502.890, 414.830 499.429, 410.916 497.458 C 407.001 495.486, 400.356 492.539, 396.149 490.909 C 391.942 489.278, 384.225 486.880, 379 485.580 C 373.775 484.280, 367.475 482.897, 365 482.508 C 362.525 482.119, 355.550 481.508, 349.500 481.150 C 343.450 480.793, 335.575 480.601, 332 480.724 M 318 511.427 C 313.875 512.168, 307.754 513.495, 304.399 514.376 C 301.043 515.257, 295.285 517.112, 291.603 518.497 C 287.922 519.883, 282.117 522.424, 278.705 524.145 C 275.292 525.865, 268.675 529.799, 264 532.886 C 259.325 535.973, 251.419 542.424, 246.431 547.221 C 241.443 552.019, 234.778 559.533, 231.619 563.920 C 228.461 568.306, 223.477 576.532, 220.543 582.198 C 217.610 587.864, 214.070 595.875, 212.675 600 C 211.281 604.125, 209.321 611.325, 208.320 616 C 206.942 622.435, 206.500 628.874, 206.500 642.500 C 206.500 656.161, 206.940 662.541, 208.324 668.966 C 209.328 673.622, 211.402 681.047, 212.934 685.466 C 214.466 689.885, 217.320 696.677, 219.277 700.561 C 221.234 704.444, 225.549 711.679, 228.866 716.639 C 232.183 721.598, 239.308 730.143, 244.699 735.627 C 251.116 742.157, 258.047 747.934, 264.774 752.362 C 270.424 756.082, 279.748 761.144, 285.493 763.612 C 291.238 766.080, 300.304 769.207, 305.641 770.561 C 310.977 771.914, 320.691 773.545, 327.227 774.185 C 336.411 775.084, 341.804 775.070, 350.964 774.126 C 357.483 773.454, 366.956 771.797, 372.015 770.443 C 377.073 769.089, 384.652 766.617, 388.856 764.949 C 393.060 763.281, 400.046 759.870, 404.379 757.369 C 408.713 754.869, 415.463 750.448, 419.379 747.545 C 423.296 744.642, 430.111 738.494, 434.525 733.883 C 438.939 729.272, 445.079 721.675, 448.168 717 C 451.258 712.325, 455.805 704.450, 458.274 699.500 C 460.742 694.550, 463.949 686.736, 465.401 682.136 C 466.852 677.535, 468.769 669.660, 469.661 664.636 C 470.666 658.975, 471.267 650.174, 471.240 641.500 C 471.210 631.210, 470.630 624.747, 469.052 617.113 C 467.872 611.400, 465.577 602.889, 463.952 598.200 C 462.327 593.511, 459.177 586.297, 456.950 582.170 C 454.724 578.042, 450.787 571.478, 448.201 567.583 C 445.616 563.687, 439.051 555.896, 433.614 550.269 C 427.257 543.691, 420.294 537.746, 414.114 533.620 C 408.826 530.090, 401.350 525.637, 397.500 523.724 C 393.650 521.810, 386.450 518.871, 381.500 517.191 C 376.550 515.510, 369.125 513.397, 365 512.493 C 360.457 511.499, 351.191 510.699, 341.500 510.466 C 330.844 510.209, 322.995 510.531, 318 511.427 M 157.896 799.595 C 142.828 810.922, 128.027 822.284, 125.004 824.845 C 121.982 827.405, 115.741 833.100, 111.137 837.500 C 106.533 841.900, 99.407 849.676, 95.301 854.779 C 91.196 859.883, 84.914 868.431, 81.342 873.775 C 77.769 879.118, 72.451 887.993, 69.523 893.495 C 66.596 898.998, 62.154 908.675, 59.653 915 C 57.152 921.325, 53.766 931.225, 52.128 937 C 50.491 942.775, 48.443 951.100, 47.578 955.500 C 46.713 959.900, 45.329 969.347, 44.503 976.494 C 43.445 985.636, 43.005 999.567, 43.017 1023.494 C 43.031 1049.377, 43.382 1059.139, 44.489 1064.364 C 45.289 1068.139, 47.149 1073.285, 48.623 1075.800 C 50.097 1078.316, 53.097 1082.320, 55.289 1084.698 C 57.482 1087.077, 61.836 1090.578, 64.966 1092.479 C 68.095 1094.380, 73.303 1096.625, 76.538 1097.468 C 81.747 1098.825, 111.715 1099, 338.500 1099 C 565.344 1099, 595.252 1098.825, 600.465 1097.467 C 603.702 1096.624, 608.521 1094.753, 611.174 1093.309 C 613.827 1091.865, 618.421 1088.143, 621.382 1085.038 C 624.344 1081.933, 627.891 1077.166, 629.264 1074.446 C 630.637 1071.726, 632.310 1067.025, 632.980 1064 C 633.874 1059.970, 634.078 1047.675, 633.742 1018 C 633.383 986.159, 632.927 975.469, 631.609 968 C 630.688 962.775, 628.626 953.325, 627.028 947 C 625.430 940.675, 622.711 931.450, 620.987 926.500 C 619.263 921.550, 614.788 911.200, 611.042 903.500 C 607.296 895.800, 600.971 884.550, 596.985 878.500 C 593 872.450, 586.684 863.659, 582.951 858.964 C 579.218 854.269, 570.949 845.376, 564.575 839.201 C 558.201 833.026, 547.026 823.554, 539.743 818.152 C 532.459 812.750, 517.882 802.222, 507.348 794.757 L 488.196 781.184 479.639 793.205 L 471.082 805.226 498.291 824.732 C 513.256 835.461, 527.525 845.865, 530 847.853 C 532.475 849.841, 538.910 855.727, 544.299 860.933 C 549.689 866.138, 556.507 873.345, 559.450 876.949 C 562.394 880.552, 567.818 888, 571.504 893.500 C 575.190 899, 580.838 908.900, 584.056 915.500 C 587.274 922.100, 591.706 932.900, 593.905 939.500 C 596.105 946.100, 599.118 957.125, 600.602 964 C 603.239 976.221, 603.308 977.426, 603.694 1018 C 604.076 1058.164, 604.024 1059.603, 602.084 1062.710 C 600.981 1064.475, 598.279 1066.837, 596.079 1067.960 C 592.084 1069.998, 591.776 1070, 338.752 1070 L 85.424 1070 80.962 1067.750 C 78.097 1066.305, 75.858 1064.247, 74.706 1062 C 73.045 1058.760, 72.941 1055.385, 73.305 1016.500 C 73.689 975.576, 73.766 974.188, 76.343 962.318 C 77.797 955.617, 80.846 944.448, 83.118 937.497 C 85.390 930.546, 90.304 918.703, 94.038 911.179 C 97.772 903.656, 103.953 893, 107.774 887.500 C 111.595 882, 118.533 873.225, 123.193 868 C 127.852 862.775, 134.459 855.918, 137.875 852.763 C 141.291 849.608, 156.779 837.509, 172.293 825.877 C 187.807 814.244, 201.135 804.137, 201.912 803.416 C 203.110 802.303, 202.010 800.356, 194.646 790.553 C 189.874 784.199, 185.816 779, 185.630 779 C 185.444 779, 172.963 788.268, 157.896 799.595 M 1162.828 795.250 C 1161.974 795.938, 1157.011 803.025, 1151.800 811 C 1146.588 818.975, 1139.082 829.758, 1135.120 834.963 C 1131.158 840.168, 1123.482 849.618, 1118.063 855.963 C 1112.644 862.308, 1101.300 874.261, 1092.855 882.524 C 1084.410 890.788, 1072.775 901.414, 1067 906.137 C 1061.225 910.861, 1052 917.982, 1046.500 921.960 C 1041 925.939, 1030.806 932.733, 1023.846 937.057 C 1016.886 941.381, 1005.636 947.829, 998.846 951.386 C 992.056 954.943, 980.200 960.515, 972.500 963.770 C 964.800 967.024, 954.450 971.069, 949.500 972.758 C 944.550 974.448, 936.675 976.953, 932 978.324 C 927.325 979.696, 919.675 981.730, 915 982.844 C 910.325 983.958, 902.732 985.575, 898.127 986.437 C 893.523 987.299, 884.311 988.679, 877.657 989.502 C 871.004 990.326, 863.184 991, 860.280 991 C 857.376 991, 855 990.756, 855 990.458 C 855 990.160, 860.254 982.173, 866.676 972.708 C 873.098 963.244, 880.094 951.789, 882.223 947.253 C 884.352 942.717, 886.354 936.807, 886.672 934.120 C 887.115 930.381, 886.810 928.479, 885.375 926.022 C 884.344 924.255, 881.830 921.952, 879.790 920.905 C 877.749 919.857, 874.550 919, 872.679 919 C 870.685 919, 867.670 920.073, 865.390 921.595 C 863.250 923.022, 859.333 926.284, 856.685 928.845 C 854.037 931.405, 849.048 937.325, 845.599 942 C 842.151 946.675, 832.766 959.541, 824.745 970.591 C 816.724 981.641, 808.325 993.523, 806.081 996.996 C 802.727 1002.185, 802 1004.179, 802 1008.188 C 802 1011.350, 802.841 1014.727, 804.391 1017.785 C 805.706 1020.381, 809.194 1024.777, 812.141 1027.555 C 815.089 1030.333, 820.650 1034.637, 824.500 1037.121 C 828.350 1039.604, 836.580 1044.467, 842.789 1047.927 C 848.998 1051.387, 857.773 1055.784, 862.289 1057.698 C 866.805 1059.612, 873.834 1062.038, 877.910 1063.089 C 881.985 1064.140, 887.911 1065, 891.078 1065 C 894.245 1065, 897.565 1064.720, 898.455 1064.379 C 899.346 1064.037, 900.732 1062.485, 901.537 1060.928 C 902.342 1059.372, 903 1057.094, 903 1055.866 C 903 1054.493, 901.062 1051.764, 897.972 1048.786 C 895.206 1046.120, 890.593 1042.441, 887.722 1040.611 C 884.850 1038.781, 878 1034.905, 872.500 1031.998 C 867 1029.090, 862.134 1026.388, 861.686 1025.992 C 861.239 1025.596, 863.714 1024.969, 867.186 1024.598 C 870.659 1024.227, 880.025 1022.783, 888 1021.389 C 895.975 1019.996, 909.250 1017.127, 917.500 1015.015 C 925.750 1012.903, 937.900 1009.392, 944.500 1007.213 C 951.100 1005.034, 961.900 1001.118, 968.500 998.511 C 975.100 995.903, 988.150 990.044, 997.500 985.489 C 1006.850 980.934, 1020.575 973.549, 1028 969.077 C 1035.425 964.605, 1046.980 957.021, 1053.677 952.223 C 1060.375 947.425, 1070.725 939.458, 1076.677 934.519 C 1082.630 929.579, 1093.134 919.904, 1100.019 913.019 C 1106.905 906.133, 1116.453 895.723, 1121.238 889.885 C 1126.022 884.047, 1133.365 874.373, 1137.556 868.387 C 1141.747 862.400, 1147.555 853.452, 1150.463 848.501 C 1153.370 843.551, 1157.793 835.421, 1160.291 830.436 C 1162.789 825.451, 1166.671 817.072, 1168.916 811.815 C 1171.162 806.558, 1173 801.504, 1173 800.583 C 1173 799.662, 1171.895 797.805, 1170.545 796.455 C 1169.195 795.105, 1167.256 794, 1166.237 794 C 1165.217 794, 1163.683 794.563, 1162.828 795.250" stroke="none" fill="#ffffff" fill-rule="evenodd"/></svg>