<svg xmlns="http://www.w3.org/2000/svg" width="1080" height="1080" viewBox="0 0 1080 1080" version="1.1"><path d="M 814 113.417 L 814 129 719 129 L 624 129 624 172 L 624 215 718.975 215 L 813.950 215 814.225 231.025 L 814.500 247.050 864.250 209.927 C 891.612 189.509, 913.985 172.511, 913.966 172.152 C 913.930 171.469, 816.606 98.746, 814.952 98.167 C 814.376 97.965, 814 103.987, 814 113.417 M 553.258 214.576 C 512.386 219.528, 472.327 234.604, 436.500 258.519 C 380.153 296.130, 346.561 339.966, 325.563 403.287 C 317.082 428.862, 311.844 456.272, 310.378 482.750 L 309.700 495 264.767 495 C 237.033 495, 219.961 495.361, 220.167 495.944 C 220.350 496.463, 245.025 522.195, 275 553.126 C 304.975 584.058, 332.388 612.469, 335.917 616.262 L 342.335 623.159 405.667 559.833 C 440.500 525.003, 469 496.167, 469 495.753 C 469 495.339, 446.219 495, 418.376 495 L 367.752 495 368.262 477.250 C 369.800 423.698, 390.351 375.650, 428.719 335.903 C 458.023 305.546, 496.597 282.831, 535.662 272.928 C 555.234 267.966, 563.519 266.856, 585.250 266.281 L 606 265.733 606 239.366 L 606 213 585.250 213.107 C 573.837 213.166, 559.441 213.827, 553.258 214.576 M 673.158 285.098 C 646.019 305.476, 624.008 322.342, 624.244 322.577 C 624.480 322.813, 646.909 339.683, 674.086 360.066 L 723.500 397.126 723.775 381.063 L 724.050 365 819.025 365 L 914 365 914 322 L 914 279 819 279 L 724 279 724 263.500 C 724 254.975, 723.663 248.011, 723.250 248.024 C 722.837 248.036, 700.296 264.720, 673.158 285.098 M 564.460 377.250 C 564.198 377.938, 564.099 411.747, 564.241 452.383 L 564.500 526.266 629.976 566.107 C 665.988 588.020, 695.736 605.622, 696.084 605.224 C 696.432 604.826, 701.506 597.808, 707.359 589.629 L 718.001 574.758 662.513 541.129 L 607.026 507.500 607.011 466.500 C 607.002 443.950, 606.700 414.363, 606.338 400.750 L 605.680 376 585.308 376 C 569.933 376, 564.820 376.307, 564.460 377.250 M 798 409.828 C 798 410.300, 798.920 413.345, 800.044 416.593 C 812.162 451.615, 815.807 492.315, 809.995 527.710 C 806.138 551.194, 800.088 569.904, 789.045 592.500 C 765.985 639.684, 733.439 672.861, 688.500 694.992 C 657.577 710.221, 629.073 717, 595.967 717 C 576.885 717, 564.042 715.837, 550 712.836 C 513.628 705.065, 470.326 682.778, 441.844 657.170 L 436.889 652.715 433.196 656.108 C 427.434 661.400, 413.298 674.703, 404.111 683.479 L 395.759 691.458 400.129 695.339 C 413.466 707.182, 443.487 728.904, 458.011 737.221 C 465.510 741.515, 498.942 757, 507.298 760.050 C 517.889 763.915, 531.529 766.606, 549.500 768.378 C 594.046 772.768, 624.163 770.837, 657 761.485 C 707.767 747.026, 757.755 718.082, 793.234 682.603 C 813.746 662.091, 827.770 642.497, 840.546 616.500 C 852.752 591.662, 859.637 569.521, 864.178 540.500 C 867.134 521.610, 867.819 482.798, 865.564 461.987 C 863.980 447.368, 859.595 423.792, 856.639 414 L 855.280 409.500 826.640 409.235 C 810.888 409.089, 798 409.356, 798 409.828" stroke="none" fill="#040404" fill-rule="evenodd"/><path d="M 0 540.001 L 0 1080.002 540.250 1079.751 L 1080.500 1079.500 1080.751 539.750 L 1081.002 -0 540.501 -0 L 0 0 0 540.001 M 0.496 540.500 C 0.496 837.500, 0.610 958.851, 0.750 810.168 C 0.890 661.485, 0.890 418.485, 0.750 270.168 C 0.610 121.851, 0.496 243.500, 0.496 540.500 M 814 113.417 L 814 129 719 129 L 624 129 624 172 L 624 215 718.975 215 L 813.950 215 814.225 231.025 L 814.500 247.050 864.250 209.927 C 891.612 189.509, 913.985 172.511, 913.966 172.152 C 913.930 171.469, 816.606 98.746, 814.952 98.167 C 814.376 97.965, 814 103.987, 814 113.417 M 553.258 214.576 C 512.386 219.528, 472.327 234.604, 436.500 258.519 C 380.153 296.130, 346.561 339.966, 325.563 403.287 C 317.082 428.862, 311.844 456.272, 310.378 482.750 L 309.700 495 264.767 495 C 237.033 495, 219.961 495.361, 220.167 495.944 C 220.350 496.463, 245.025 522.195, 275 553.126 C 304.975 584.058, 332.388 612.469, 335.917 616.262 L 342.335 623.159 405.667 559.833 C 440.500 525.003, 469 496.167, 469 495.753 C 469 495.339, 446.219 495, 418.376 495 L 367.752 495 368.262 477.250 C 369.800 423.698, 390.351 375.650, 428.719 335.903 C 458.023 305.546, 496.597 282.831, 535.662 272.928 C 555.234 267.966, 563.519 266.856, 585.250 266.281 L 606 265.733 606 239.366 L 606 213 585.250 213.107 C 573.837 213.166, 559.441 213.827, 553.258 214.576 M 673.158 285.098 C 646.019 305.476, 624.008 322.342, 624.244 322.577 C 624.480 322.813, 646.909 339.683, 674.086 360.066 L 723.500 397.126 723.775 381.063 L 724.050 365 819.025 365 L 914 365 914 322 L 914 279 819 279 L 724 279 724 263.500 C 724 254.975, 723.663 248.011, 723.250 248.024 C 722.837 248.036, 700.296 264.720, 673.158 285.098 M 564.460 377.250 C 564.198 377.938, 564.099 411.747, 564.241 452.383 L 564.500 526.266 629.976 566.107 C 665.988 588.020, 695.736 605.622, 696.084 605.224 C 696.432 604.826, 701.506 597.808, 707.359 589.629 L 718.001 574.758 662.513 541.129 L 607.026 507.500 607.011 466.500 C 607.002 443.950, 606.700 414.363, 606.338 400.750 L 605.680 376 585.308 376 C 569.933 376, 564.820 376.307, 564.460 377.250 M 798 409.828 C 798 410.300, 798.920 413.345, 800.044 416.593 C 812.162 451.615, 815.807 492.315, 809.995 527.710 C 806.138 551.194, 800.088 569.904, 789.045 592.500 C 765.985 639.684, 733.439 672.861, 688.500 694.992 C 657.577 710.221, 629.073 717, 595.967 717 C 576.885 717, 564.042 715.837, 550 712.836 C 513.628 705.065, 470.326 682.778, 441.844 657.170 L 436.889 652.715 433.196 656.108 C 427.434 661.400, 413.298 674.703, 404.111 683.479 L 395.759 691.458 400.129 695.339 C 413.466 707.182, 443.487 728.904, 458.011 737.221 C 465.510 741.515, 498.942 757, 507.298 760.050 C 517.889 763.915, 531.529 766.606, 549.500 768.378 C 594.046 772.768, 624.163 770.837, 657 761.485 C 707.767 747.026, 757.755 718.082, 793.234 682.603 C 813.746 662.091, 827.770 642.497, 840.546 616.500 C 852.752 591.662, 859.637 569.521, 864.178 540.500 C 867.134 521.610, 867.819 482.798, 865.564 461.987 C 863.980 447.368, 859.595 423.792, 856.639 414 L 855.280 409.500 826.640 409.235 C 810.888 409.089, 798 409.356, 798 409.828" stroke="none" fill="#fbfbfb" fill-rule="evenodd"/></svg>