<svg width="36" height="33" viewBox="0 0 36 33" fill="none" xmlns="http://www.w3.org/2000/svg">
<path d="M35.1451 32.0043C35.1359 31.9566 35.1286 31.9176 35.1227 31.8835C35.1108 31.8214 35.1022 31.7723 35.0897 31.7211L33.8783 26.8547L31.821 18.5884C31.3393 16.6525 30.8405 14.6504 30.3542 12.6804C30.3008 12.462 30.1793 12.1678 29.7498 12.1343C29.156 12.0838 28.5536 12.021 27.9683 11.9603C27.7314 11.935 27.4952 11.9104 27.2577 11.8865L26.3564 11.7964L25.624 11.7234L25.5415 13.006L25.8272 13.0354L26.7054 13.1268C27.5474 13.2142 28.3424 13.2975 29.1533 13.3719C29.1786 13.3735 29.2036 13.3778 29.2279 13.3849C29.2363 13.4041 29.2427 13.4243 29.247 13.4449C29.4569 14.3084 29.6766 15.1835 29.889 16.03C29.9898 16.4341 30.0907 16.8379 30.1919 17.2416C31.1315 21.0128 32.0704 24.7844 33.0086 28.5565C33.165 29.1824 33.3201 29.8084 33.4784 30.45L33.5919 30.9088L33.5668 30.9053C33.2409 30.8603 32.9149 30.8125 32.5896 30.7654L31.9048 30.6671C31.5357 30.6148 31.1671 30.5609 30.7989 30.5053C29.9306 30.377 29.0333 30.2446 28.1458 30.1395C27.9175 30.1128 27.6839 30.0787 27.4589 30.0466C26.6249 29.9258 25.7619 29.8009 24.8579 29.9654C23.4618 30.2193 22.028 30.4159 20.6411 30.6064C20.2135 30.6651 19.786 30.7242 19.3584 30.7838C19.1987 30.807 19.0364 30.8343 18.88 30.8617C18.4083 30.9429 17.9622 31.0193 17.5393 30.9709C16.3741 30.8344 15.1923 30.6623 14.0489 30.493C13.2571 30.3763 12.4416 30.2548 11.6346 30.1517C11.401 30.1203 11.1595 30.0753 10.9266 30.0316C10.2668 29.9081 9.58457 29.7804 8.86603 29.9197C8.43584 30.0029 7.99376 30.0671 7.57874 30.1244C6.41175 30.2855 5.24388 30.4448 4.07512 30.6023L1.85221 30.9033L1.86541 30.8521C1.9492 30.521 2.02838 30.2104 2.10624 29.8964L2.63409 27.777C3.80064 23.0895 5.00414 18.2484 6.18191 13.4845C6.18728 13.4506 6.19917 13.4181 6.21688 13.389C6.25709 13.372 6.30014 13.3634 6.34357 13.3637C7.38739 13.2715 8.42 13.1589 9.2032 13.0709C10.9016 12.8804 12.3169 12.7555 13.783 13.0162C14.2079 13.092 14.6407 13.1241 15.0656 13.1528C15.2577 13.1671 15.4563 13.1821 15.6529 13.2012L15.9511 13.2292L16.0508 12.0142L15.7941 11.9582L15.7129 11.9391C15.6569 11.9243 15.6 11.9132 15.5427 11.9056L15.0808 11.8551C14.5761 11.7992 14.0535 11.7411 13.5382 11.692C13.3673 11.6756 13.1911 11.6531 13.0209 11.6312C12.5643 11.5739 12.0912 11.5138 11.6188 11.5507C10.3777 11.6469 9.1194 11.7753 7.90337 11.9002C7.23695 11.9684 6.54811 12.0367 5.87048 12.105C5.6633 12.1248 5.11367 12.1766 5.04373 12.8784C5.01889 13.0611 4.97804 13.2412 4.92167 13.4163C4.89593 13.5057 4.86954 13.5978 4.84579 13.6893L1.0413 28.9695C0.875686 29.6343 0.711392 30.2999 0.54182 30.9791L0.1875 32.4057L0.609781 32.3627L0.749002 32.3497C0.838077 32.3415 0.921873 32.334 1.00633 32.3218L2.12207 32.1572C2.78189 32.0596 3.46348 31.9586 4.13451 31.8651C5.4482 31.6815 6.63256 31.5176 7.82023 31.3716C7.99508 31.3497 8.17191 31.3231 8.3428 31.2972C8.87065 31.218 9.36485 31.1429 9.84058 31.1989C11.3179 31.3716 12.8163 31.5961 14.266 31.8132C14.9528 31.9156 15.6634 32.0221 16.3628 32.1217C16.4816 32.1381 16.5997 32.1586 16.7251 32.1805C17.1322 32.2487 17.5531 32.3224 17.9741 32.2692C19.3769 32.091 20.7988 31.8801 22.1738 31.676C22.8851 31.5709 23.6208 31.4617 24.344 31.3586L24.6514 31.3135C25.1397 31.2405 25.6444 31.1661 26.1288 31.1729C26.5518 31.1909 26.973 31.2409 27.389 31.3224C27.5737 31.3531 27.7651 31.3852 27.9551 31.4118L30.2401 31.7333L33.1432 32.1429C33.5068 32.1934 33.869 32.2433 34.2491 32.2944L35.2276 32.4241L35.1451 32.0043Z" fill="#4A4A4A"/>
<path d="M18.5983 16.2143C18.9942 16.7686 19.4099 17.2922 19.8467 17.8464C20.0446 18.0949 20.2426 18.3454 20.4405 18.6021L20.647 18.869L20.8813 18.628C20.9281 18.5796 20.9684 18.5393 21.004 18.5031C21.07 18.4348 21.1267 18.3802 21.1795 18.3195C22.3421 16.9884 23.3769 15.5436 24.2694 14.0054C25.6108 11.7023 26.3709 9.69406 26.6626 7.68515C26.9496 5.70901 26.6197 4.06256 25.6544 2.65093C24.9212 1.57558 23.8783 0.767372 22.6747 0.341668C21.477 -0.0892558 20.1776 -0.113171 18.9658 0.273407C17.7338 0.657157 16.6525 1.43799 15.8795 2.50207C15.1064 3.56615 14.6822 4.85786 14.6685 6.18888C14.6546 7.5657 14.9324 9.00395 15.5176 10.5862C16.2078 12.4497 17.2153 14.2914 18.5983 16.2143ZM20.492 16.63C20.1707 16.2109 19.8671 15.8109 19.5788 15.4123C18.1529 13.4197 17.1546 11.5385 16.5272 9.6613C16.1478 8.52544 15.7426 7.02098 15.9815 5.45917C16.2909 3.43524 17.763 1.84136 19.7332 1.40107C20.0531 1.33053 20.3794 1.29574 20.7064 1.29732C21.493 1.30131 22.267 1.50279 22.9617 1.88445C23.6564 2.26612 24.2512 2.81656 24.695 3.48849C25.4426 4.62571 25.6775 5.97386 25.4116 7.61007C25.0619 9.76233 24.1665 11.8927 22.5942 14.316C22.1607 14.9836 21.6935 15.6239 21.1987 16.3024C21.0462 16.5119 20.8899 16.7263 20.7322 16.9447L20.492 16.63Z" fill="#4A4A4A"/>
<path d="M17.7438 21.4534C17.6379 21.4522 17.5329 21.4729 17.4348 21.5142C17.3367 21.5554 17.2475 21.6164 17.1724 21.6936C17.0603 21.8042 16.9825 21.9468 16.949 22.1033C16.9156 22.2597 16.928 22.423 16.9846 22.5721C17.0413 22.7213 17.1396 22.8496 17.2671 22.9407C17.3946 23.0317 17.5454 23.0814 17.7003 23.0834H17.7161C17.9256 23.0841 18.1267 22.999 18.2756 22.8465C18.3502 22.7713 18.4094 22.6812 18.4497 22.5818C18.4899 22.4823 18.5104 22.3755 18.5099 22.2677C18.5088 22.0558 18.4284 21.8526 18.2855 21.7008C18.1427 21.5489 17.9485 21.4602 17.7438 21.4534Z" fill="#4A4A4A"/>
<path d="M24.148 15.6116C24.0415 15.6092 23.9357 15.6286 23.8366 15.6688C23.7375 15.709 23.6471 15.7691 23.5706 15.8457C23.4951 15.9207 23.4347 16.0104 23.3929 16.1096C23.3512 16.2088 23.3288 16.3156 23.3271 16.4239C23.3297 16.6351 23.4086 16.8376 23.5483 16.9916C23.688 17.1456 23.8784 17.24 24.082 17.256H24.117C24.3141 17.252 24.5026 17.1714 24.6448 17.03C24.725 16.955 24.7897 16.8639 24.8351 16.7623C24.8804 16.6608 24.9055 16.5507 24.9087 16.4389C24.909 16.2263 24.8301 16.0217 24.6884 15.8677C24.5468 15.7136 24.3532 15.6219 24.148 15.6116Z" fill="#4A4A4A"/>
<path d="M17.7382 21.3659C17.942 21.3575 18.1351 21.2693 18.2783 21.1191C18.4215 20.9689 18.5042 20.7679 18.5096 20.557C18.514 20.3451 18.4372 20.14 18.2958 19.9865C18.1545 19.833 17.9602 19.7436 17.7554 19.7379C17.6486 19.7336 17.542 19.7516 17.4421 19.7908C17.3421 19.83 17.2507 19.8895 17.1734 19.9659C17.0982 20.0399 17.0382 20.1288 16.9968 20.2273C16.9554 20.3258 16.9336 20.4319 16.9326 20.5393C16.9355 20.7568 17.02 20.9646 17.1682 21.1188C17.3164 21.2731 17.5168 21.3617 17.727 21.3659H17.7382Z" fill="#4A4A4A"/>
<path d="M17.6928 16.2669C17.4899 16.2806 17.2993 16.3722 17.1584 16.5237C17.0174 16.6753 16.9362 16.8758 16.9307 17.086C16.9296 17.193 16.9497 17.2991 16.9896 17.3978C17.0295 17.4966 17.0885 17.5858 17.163 17.6601C17.3135 17.8126 17.5157 17.8983 17.7265 17.899H17.7489C17.9534 17.8938 18.1476 17.8055 18.2897 17.6532C18.4317 17.501 18.51 17.2969 18.5077 17.0853C18.5065 16.9749 18.484 16.8659 18.4415 16.7646C18.399 16.6634 18.3374 16.5719 18.2603 16.4956C18.1852 16.4203 18.0963 16.3612 17.9989 16.322C17.9014 16.2827 17.7973 16.264 17.6928 16.2669Z" fill="#4A4A4A"/>
<path d="M17.7259 24.9155C17.5221 24.9153 17.3261 24.9963 17.1787 25.1418C17.0312 25.2872 16.9436 25.4859 16.9341 25.6964C16.9303 25.8051 16.9478 25.9135 16.9854 26.0151C17.023 26.1167 17.0801 26.2093 17.1532 26.2876C17.2257 26.3684 17.3132 26.4333 17.4104 26.4785C17.5077 26.5236 17.6127 26.5481 17.7193 26.5504H17.7246C17.9272 26.5472 18.1211 26.4644 18.2669 26.3187C18.4127 26.1731 18.4995 25.9755 18.5097 25.7661C18.5148 25.6577 18.4985 25.5495 18.4618 25.4479C18.4252 25.3462 18.369 25.2534 18.2966 25.1749C18.2236 25.0948 18.1359 25.0306 18.0385 24.9861C17.9412 24.9415 17.8362 24.9175 17.7298 24.9155H17.7259Z" fill="#4A4A4A"/>
<path d="M17.1649 28.0302C17.3163 28.1812 17.5182 28.2658 17.7284 28.2664H17.7574C17.9626 28.2596 18.1567 28.1689 18.2972 28.0142C18.4378 27.8595 18.5132 27.6534 18.507 27.4412C18.5044 27.3312 18.4805 27.2229 18.4367 27.1227C18.393 27.0224 18.3303 26.9323 18.2523 26.8575C18.1761 26.7832 18.0863 26.7254 17.9881 26.6876C17.89 26.6497 17.7855 26.6325 17.6809 26.6371C17.4789 26.6538 17.29 26.7475 17.151 26.9002C17.012 27.0528 16.9328 27.2534 16.9287 27.463C16.9288 27.5692 16.9499 27.6742 16.9905 27.7717C17.0311 27.8693 17.0904 27.9572 17.1649 28.0302Z" fill="#4A4A4A"/>
<path d="M17.7076 18.0075C17.4996 18.0101 17.301 18.0982 17.1557 18.2522C17.0104 18.4063 16.9301 18.6138 16.9327 18.829C16.9352 19.0443 17.0203 19.2497 17.1692 19.4C17.3181 19.5504 17.5187 19.6334 17.7268 19.6308H17.74C17.843 19.6286 17.9446 19.6054 18.0389 19.5626C18.1333 19.5198 18.2186 19.4581 18.29 19.3812C18.3613 19.3043 18.4173 19.2136 18.4548 19.1143C18.4922 19.015 18.5104 18.909 18.5083 18.8024C18.5062 18.6958 18.4838 18.5907 18.4424 18.4931C18.401 18.3954 18.3414 18.3072 18.2671 18.2334C18.1927 18.1596 18.1051 18.1016 18.0091 18.0629C17.9131 18.0241 17.8106 18.0053 17.7076 18.0075Z" fill="#4A4A4A"/>
<path d="M24.9317 20.7421H24.9205C24.8152 20.7414 24.7108 20.7623 24.6134 20.8037C24.516 20.8451 24.4275 20.906 24.3531 20.983C24.2796 21.0587 24.2216 21.1488 24.1826 21.2482C24.1436 21.3475 24.1244 21.454 24.1261 21.5612C24.1312 21.7728 24.2152 21.9741 24.3606 22.123C24.506 22.2719 24.7014 22.3567 24.906 22.3599H24.9146C25.0189 22.3612 25.1225 22.341 25.2191 22.3003C25.3158 22.2596 25.4036 22.1993 25.4774 22.123C25.5512 22.0467 25.6095 21.9558 25.6488 21.8558C25.6881 21.7558 25.7077 21.6487 25.7063 21.5407C25.7071 21.4354 25.6876 21.3309 25.649 21.2335C25.6103 21.136 25.5532 21.0475 25.4811 20.9732C25.409 20.8988 25.3232 20.8401 25.2289 20.8004C25.1346 20.7607 25.0335 20.7409 24.9317 20.7421Z" fill="#4A4A4A"/>
<path d="M25.7107 25.8486C25.4979 25.8569 25.2965 25.9503 25.1489 26.109C25.0012 26.2678 24.9188 26.4795 24.9189 26.6999C24.9341 27.1169 25.3115 27.493 25.7107 27.4924H25.7219C25.8263 27.4911 25.9294 27.4682 26.0251 27.4249C26.1207 27.3816 26.207 27.3189 26.2788 27.2405C26.3528 27.1608 26.4108 27.0668 26.4495 26.9638C26.4883 26.8608 26.5069 26.7509 26.5045 26.6405C26.4967 26.4293 26.4107 26.2292 26.2643 26.0818C26.1179 25.9344 25.9223 25.8509 25.718 25.8486H25.7107Z" fill="#4A4A4A"/>
<path d="M11.8708 17.9692C11.8654 17.7577 11.7799 17.5568 11.6326 17.41C11.4853 17.2631 11.2881 17.182 11.0836 17.1842C10.9753 17.1842 10.8682 17.2065 10.7683 17.2499C10.6685 17.2933 10.5781 17.3568 10.5023 17.4368C10.4302 17.5129 10.3737 17.6033 10.3363 17.7025C10.2989 17.8018 10.2813 17.9078 10.2846 18.0143C10.2886 18.1225 10.3135 18.2288 10.3578 18.3269C10.4021 18.425 10.4649 18.513 10.5426 18.5856C10.6897 18.7254 10.8819 18.8035 11.0816 18.8048H11.1272C11.3315 18.7919 11.523 18.6977 11.6617 18.542C11.8003 18.3862 11.8752 18.1809 11.8708 17.9692Z" fill="#4A4A4A"/>
<path d="M11.6056 19.7065C11.609 19.4945 11.5314 19.2895 11.3898 19.1362C11.2481 18.9829 11.0537 18.8935 10.8488 18.8874C10.7424 18.8825 10.6361 18.8999 10.5364 18.9385C10.4366 18.9771 10.3454 19.0361 10.2682 19.112C10.1925 19.1865 10.1321 19.276 10.0907 19.3753C10.0493 19.4745 10.0278 19.5814 10.0273 19.6895C10.0279 19.9071 10.1112 20.1158 10.2595 20.2703C10.4077 20.4248 10.6087 20.5126 10.8191 20.5147H10.8369C11.0399 20.505 11.2319 20.4164 11.3744 20.2665C11.5169 20.1167 11.5995 19.9167 11.6056 19.7065Z" fill="#4A4A4A"/>
<path d="M24.6271 19.0322C24.4226 19.0349 24.2275 19.1211 24.0843 19.2719C23.941 19.4228 23.8613 19.6262 23.8623 19.8377C23.8628 20.0545 23.9459 20.2624 24.0934 20.4163C24.241 20.5702 24.4412 20.6579 24.6508 20.6602H24.6746C24.8791 20.6519 25.0727 20.562 25.2145 20.4092C25.3564 20.2565 25.4355 20.0529 25.4353 19.8411C25.4364 19.7321 25.4161 19.624 25.3755 19.5234C25.335 19.4228 25.2751 19.3318 25.1995 19.2559C25.1239 19.18 25.0341 19.1208 24.9357 19.0819C24.8373 19.0429 24.7323 19.0251 24.6271 19.0295V19.0322Z" fill="#4A4A4A"/>
<path d="M11.0695 23.0799C11.0606 22.8694 10.9747 22.6702 10.8292 22.5227C10.6836 22.3753 10.4893 22.2907 10.2856 22.286H10.2823C10.1739 22.2781 10.065 22.2933 9.96256 22.3308C9.86008 22.3683 9.76615 22.4271 9.68662 22.5038C9.6071 22.5804 9.54368 22.6732 9.50031 22.7763C9.45695 22.8794 9.43457 22.9907 9.43457 23.1031C9.43457 23.2156 9.45695 23.3268 9.50031 23.4299C9.54368 23.533 9.6071 23.6258 9.68662 23.7025C9.76615 23.7791 9.86008 23.838 9.96256 23.8755C10.065 23.9129 10.1739 23.9282 10.2823 23.9202H10.2896C10.3935 23.9205 10.4965 23.8993 10.5924 23.8576C10.6883 23.816 10.7751 23.7549 10.8478 23.6779C10.922 23.599 10.9799 23.5053 11.018 23.4025C11.0561 23.2997 11.0736 23.1899 11.0695 23.0799Z" fill="#4A4A4A"/>
<path d="M25.4647 24.1482H25.4549C25.2426 24.1494 25.0394 24.2372 24.8894 24.3926C24.8142 24.4676 24.7548 24.5579 24.7147 24.6577C24.6746 24.7575 24.6547 24.8648 24.6563 24.9729C24.6579 25.081 24.681 25.1875 24.724 25.286C24.7671 25.3845 24.8292 25.4728 24.9065 25.5455C25.055 25.6965 25.2539 25.7826 25.4621 25.7858H25.4812C25.889 25.7742 26.242 25.3851 26.2374 24.953C26.2339 24.7416 26.1515 24.5398 26.0075 24.3898C25.8635 24.2399 25.669 24.1533 25.4647 24.1482Z" fill="#4A4A4A"/>
<path d="M9.75133 25.7094C9.54791 25.7114 9.35279 25.7931 9.20526 25.938C9.05773 26.0829 8.96876 26.2803 8.95625 26.4903C8.95391 26.5986 8.97249 26.7064 9.0109 26.8072C9.0493 26.908 9.10677 26.9998 9.17993 27.0774C9.25333 27.1572 9.34138 27.221 9.43893 27.2652C9.53647 27.3094 9.64155 27.333 9.74803 27.3347C9.95256 27.3302 10.1473 27.2433 10.2909 27.0925C10.4345 26.9418 10.5156 26.739 10.517 26.5274C10.5184 26.3157 10.4399 26.1119 10.2983 25.9591C10.1567 25.8064 9.96304 25.7168 9.75858 25.7094H9.75133Z" fill="#4A4A4A"/>
<path d="M24.3896 17.3242H24.3857C24.2781 17.3249 24.1718 17.3477 24.0729 17.3915C23.974 17.4352 23.8845 17.4989 23.8097 17.5788C23.7376 17.6558 23.6813 17.7471 23.6441 17.8471C23.6069 17.9472 23.5896 18.054 23.5933 18.1611C23.5969 18.2694 23.6215 18.3759 23.6656 18.4743C23.7097 18.5727 23.7724 18.6609 23.8499 18.7338C23.9963 18.8742 24.1886 18.9523 24.3883 18.9522H24.4286C24.6338 18.9423 24.827 18.8487 24.9657 18.6919C25.1044 18.535 25.1775 18.3278 25.1689 18.1154C25.1651 17.9042 25.0813 17.703 24.9356 17.555C24.7898 17.4071 24.5938 17.3242 24.3896 17.3242Z" fill="#4A4A4A"/>
<path d="M11.33 21.4438C11.3365 21.335 11.3217 21.2259 11.2865 21.1232C11.2513 21.0204 11.1964 20.926 11.1252 20.8457C11.0539 20.7654 10.9677 20.7008 10.8717 20.6558C10.7757 20.6108 10.6719 20.5863 10.5666 20.5837C10.4121 20.5821 10.2604 20.6272 10.1304 20.7136C10.0004 20.8001 9.89767 20.9239 9.83489 21.07C9.77211 21.2161 9.75202 21.378 9.7771 21.5358C9.80218 21.6935 9.87134 21.8402 9.97605 21.9578C10.0477 22.0373 10.134 22.1012 10.2298 22.1456C10.3257 22.19 10.4292 22.2141 10.5342 22.2165H10.5547C10.7559 22.2182 10.9498 22.1383 11.0947 21.9938C11.2397 21.8494 11.3241 21.6519 11.33 21.4438Z" fill="#4A4A4A"/>
<path d="M25.202 22.4411C25.0999 22.437 24.9981 22.4539 24.9025 22.4909C24.8068 22.5279 24.7192 22.5842 24.6448 22.6566C24.5704 22.729 24.5106 22.8159 24.469 22.9124C24.4273 23.0089 24.4047 23.113 24.4023 23.2186C24.3972 23.3264 24.4128 23.4341 24.4481 23.5356C24.4834 23.6371 24.5378 23.7304 24.608 23.8102C24.6783 23.8899 24.7631 23.9545 24.8575 24.0002C24.952 24.0459 25.0543 24.0719 25.1584 24.0766H25.1848C25.3383 24.0736 25.4876 24.0247 25.6148 23.9359C25.742 23.8471 25.8417 23.7222 25.902 23.5762C25.9622 23.4302 25.9803 23.2693 25.9542 23.1128C25.9282 22.9564 25.8589 22.8111 25.7549 22.6943C25.6841 22.6157 25.5985 22.5527 25.5035 22.5092C25.4085 22.4656 25.3059 22.4425 25.202 22.4411Z" fill="#4A4A4A"/>
<path d="M10.7985 24.8009C10.7934 24.5903 10.711 24.3895 10.5682 24.2394C10.4253 24.0892 10.2327 24.0008 10.0292 23.992H10.0186C9.81167 23.9942 9.61391 24.0808 9.46835 24.233C9.39254 24.311 9.33241 24.4037 9.29141 24.5059C9.25042 24.608 9.22938 24.7176 9.22949 24.8282C9.23237 25.0392 9.31446 25.2408 9.4584 25.3904C9.60234 25.5399 9.79685 25.6257 10.0008 25.6296H10.0226C10.2254 25.6309 10.4205 25.5489 10.565 25.4016C10.6413 25.3231 10.7014 25.2294 10.7416 25.1261C10.7817 25.0229 10.8011 24.9122 10.7985 24.8009Z" fill="#4A4A4A"/>
<path d="M12.1358 16.2846C12.136 16.1747 12.1148 16.0658 12.0733 15.9645C12.0318 15.8633 11.9709 15.7718 11.8943 15.6955C11.8187 15.6204 11.7294 15.5617 11.6317 15.5226C11.5339 15.4836 11.4296 15.4652 11.3248 15.4684C11.2201 15.4715 11.117 15.4963 11.0216 15.5412C10.9262 15.586 10.8405 15.6501 10.7693 15.7297C10.6991 15.811 10.6455 15.9061 10.6115 16.0093C10.5775 16.1124 10.5638 16.2216 10.5713 16.3304C10.5801 16.5384 10.6677 16.7345 10.8151 16.8763C10.9625 17.0181 11.158 17.0942 11.3592 17.0881H11.3704C11.5748 17.0864 11.7703 17.0009 11.9138 16.8502C12.0573 16.6996 12.1372 16.4961 12.1358 16.2846Z" fill="#4A4A4A"/>
<path d="M17.7248 23.1877C17.6178 23.1882 17.5119 23.2107 17.4134 23.2541C17.315 23.2975 17.2259 23.3608 17.1514 23.4403C17.0785 23.5172 17.0214 23.6085 16.9835 23.7088C16.9457 23.8091 16.9278 23.9163 16.931 24.0239C16.9403 24.2343 17.0269 24.433 17.1731 24.5794C17.3193 24.7258 17.514 24.8089 17.7175 24.8117H17.7228C17.927 24.8055 18.1209 24.7173 18.2632 24.5657C18.4056 24.4141 18.4852 24.2111 18.4852 23.9997C18.4852 23.7883 18.4056 23.5853 18.2632 23.4337C18.1209 23.2821 17.927 23.1939 17.7228 23.1877H17.7248Z" fill="#4A4A4A"/>
<path d="M23.9707 6.55336C23.972 6.10656 23.8875 5.66395 23.7223 5.25115C23.557 4.83836 23.3143 4.46358 23.008 4.14853C22.7118 3.83641 22.3587 3.5882 21.969 3.4183C21.5794 3.2484 21.1611 3.16018 20.7383 3.15875H20.7337C19.8727 3.1594 19.0466 3.51071 18.4342 4.13667C17.8217 4.76264 17.4721 5.61292 17.461 6.50353C17.4571 7.396 17.7951 8.25372 18.401 8.88901C19.0069 9.5243 19.8314 9.88542 20.6941 9.89335H20.702C22.4993 9.89813 23.9654 8.39639 23.9707 6.55336ZM20.7106 8.60118H20.6987C20.437 8.59987 20.1782 8.5449 19.9372 8.43945C19.6962 8.334 19.4778 8.18016 19.2946 7.98683C19.1073 7.79262 18.9592 7.56184 18.8588 7.30791C18.7585 7.05398 18.7079 6.78195 18.71 6.50762C18.7179 5.39566 19.6337 4.4598 20.7165 4.4598C21.2481 4.46482 21.7564 4.68627 22.1313 5.07619C22.5063 5.46612 22.7176 5.99313 22.7197 6.54312C22.7128 7.09058 22.4984 7.61335 22.1226 7.9989C21.7469 8.38445 21.2398 8.60195 20.7106 8.60459V8.60118Z" fill="#4A4A4A"/>
</svg>
