<svg width="20" height="20" viewBox="0 0 20 20" fill="none" xmlns="http://www.w3.org/2000/svg">
<g clip-path="url(#clip0_5_23)">
<path d="M6.39844 3.02451C6.70909 3.02451 6.96093 2.77267 6.96093 2.46201C6.96093 2.15135 6.70909 1.89951 6.39844 1.89951C6.08778 1.89951 5.83594 2.15135 5.83594 2.46201C5.83594 2.77267 6.08778 3.02451 6.39844 3.02451Z" fill="#4A4A4A"/>
<path d="M8.9029 2.91714C8.71517 2.43912 8.37092 1.74941 7.79698 1.1782C7.22507 0.608947 6.54268 0.274542 6.07092 0.0942267C5.553 -0.10372 4.96447 0.0210492 4.5716 0.412073L3.19105 1.78615C2.78182 2.19345 2.66387 2.82018 2.89753 3.34567C2.96999 3.50866 3.04879 3.66807 3.13299 3.82209L0.102972 6.85209C0.037037 6.91803 0 7.00745 0 7.1007V8.64757C0 8.84174 0.157394 8.99913 0.351561 8.99913H1.89843C2.0926 8.99913 2.24999 8.84174 2.24999 8.64757V8.01476L2.8828 8.01474C3.07697 8.01474 3.23436 7.85735 3.23436 7.66318V7.03039H3.86717C4.06134 7.03039 4.21873 6.87299 4.21873 6.67883C4.21873 6.48466 4.06134 6.32727 3.86717 6.32727H2.8828C2.68863 6.32727 2.53124 6.48466 2.53124 6.67883V7.31162L1.89843 7.31164C1.70426 7.31164 1.54687 7.46903 1.54687 7.6632V8.29601H0.703122V7.24632L3.82068 4.12878C3.93522 4.01424 3.95668 3.8363 3.87267 3.69782C3.75084 3.497 3.63892 3.28241 3.54004 3.06C3.42405 2.79912 3.48314 2.48748 3.6871 2.28447L5.06763 0.910411C5.26473 0.714258 5.56001 0.651697 5.81994 0.751013C6.22813 0.907036 6.81644 1.19423 7.30099 1.67653C7.78852 2.16176 8.08533 2.75876 8.24845 3.17413C8.35024 3.43337 8.28839 3.72789 8.09086 3.92449L6.69365 5.31516C6.49019 5.51764 6.18651 5.57684 5.91994 5.46598C5.70009 5.37453 5.48717 5.2659 5.28713 5.14312C5.12167 5.04155 4.90517 5.09337 4.80361 5.25885C4.70204 5.42433 4.75384 5.64082 4.91932 5.74239C5.15051 5.88428 5.39632 6.0097 5.6499 6.11517C6.17974 6.33558 6.78413 6.21712 7.18965 5.81351L8.58686 4.42286C8.98316 4.02842 9.10721 3.4374 8.9029 2.91714Z" fill="#4A4A4A"/>
</g>
<defs>
<clipPath id="clip0_5_23">
<rect width="20" height="20" fill="white"/>
</clipPath>
</defs>
</svg>
